<?xml version="1.0" encoding="UTF-8" standalone="no"?>
<!-- Created with Inkscape (http://www.inkscape.org/) -->

<svg
   version="1.1"
   id="svg1"
   width="96"
   height="96"
   viewBox="0 0 96 96"
   xmlns="http://www.w3.org/2000/svg"
   xmlns:svg="http://www.w3.org/2000/svg">
  <defs
     id="defs1" />
  <g
     id="g1">
    <g
       id="g2"
       transform="translate(1.3085502)">
      <path
         style="fill:#f5f9fd"
         d="M 37.298115,82.168734 C 30.775773,80.934211 25.228128,77.964075 20.5,73.175244 16.915802,69.545028 14.6991,66.004735 13.140149,61.420826 7.8205849,45.779285 14.95993,29.006819 29.869701,22.11808 c 2.862216,-1.322425 6.561973,-2.340469 9.6587,-2.657738 l 2.138266,-0.219072 0.0012,-2.370635 c 0.0027,-5.214747 2.647523,-6.682079 9.649845,-5.353761 8.09744,1.536058 14.903838,5.250267 21.015575,11.468068 3.784823,3.850505 6.25392,7.452861 8.211119,11.979834 2.678535,6.195412 3.769584,13.865306 2.265186,15.923884 -1.114694,1.52532 -2.643359,2.110236 -5.516583,2.110822 L 74.752778,53 74.522823,55.032529 C 73.995488,59.693553 71.749051,65.403339 68.830795,69.5 67.171396,71.829473 63.200729,75.732898 60.891101,77.305239 58.457361,78.962072 54.16636,80.86175 51,81.684148 47.361434,82.629192 40.932166,82.856572 37.298115,82.168734 Z"
         id="path80" />
      <path
         style="fill:#f1f5fd"
         d="M 38.686858,82.327465 C 29.841798,81.087585 21.664283,75.888365 16.730364,68.367643 13.096562,62.828676 11.552821,57.635011 11.568085,51 11.578476,46.483494 12.080614,43.572218 13.49935,39.802983 17.666793,28.731106 27.981273,20.802335 39.916667,19.495913 L 42,19.267875 v -2.222471 c 0,-2.674145 0.714906,-4.223987 2.353888,-5.102982 1.374553,-0.737181 2.687977,-0.761813 6.352449,-0.119131 16.379847,2.872727 29.29337,15.860759 32.11839,32.303706 0.664896,3.870009 0.640691,4.818946 -0.15626,6.12605 -1.09443,1.795008 -2.463167,2.410944 -5.360794,2.412374 l -2.52566,0.0012 -0.414479,2.70755 c -2.35564,15.388031 -14.643904,26.480182 -30.034201,27.110737 -1.925,0.07887 -4.465913,0.008 -5.646475,-0.157489 z"
         id="path79" />
      <path
         style="fill:#ebf2fc"
         d="M 39.333333,82.342454 C 34.651577,81.746093 28.939655,79.595884 25.197227,77.021026 17.766604,71.908623 12.531087,63.030252 11.715586,54.158908 10.097066,36.551984 22.535318,21.422005 40.208789,19.499573 l 2.042123,-0.222132 0.153219,-2.646763 c 0.135801,-2.345884 0.260801,-2.759055 1.099597,-3.634569 1.310116,-1.367467 2.715251,-1.54482 6.797554,-0.857974 6.05138,1.018142 12.406089,3.703195 17.120915,7.234093 3.131369,2.345059 7.807892,7.447706 9.686572,10.569211 3.155807,5.243504 5.23914,11.348818 5.707196,16.725228 0.18996,2.18201 0.12978,2.640347 -0.473126,3.603392 -0.910184,1.453869 -2.475835,2.063274 -5.300853,2.063274 h -2.312761 l -0.223282,1.75 c -0.70781,5.547532 -2.761327,11.030172 -5.62991,15.031174 -1.90897,2.662566 -6.179505,6.786613 -8.683273,8.38542 -5.955524,3.802959 -14.127363,5.700056 -20.859427,4.842527 z"
         id="path78" />
      <path
         style="fill:#e4f1fc"
         d="M 36.505191,81.78017 C 24.189418,79.141471 14.672949,69.467932 12.151614,57.024634 11.312226,52.882083 11.609542,46.215247 12.814224,42.166667 14.842498,35.350239 19.481177,28.911719 25.197227,24.978974 29.245158,22.193924 35.395822,20.027718 40.75,19.501433 L 43,19.280271 v -2.447894 c 0,-2.173544 0.100939,-2.567852 0.90063,-3.518231 l 0.90063,-1.070338 3.182703,0.193016 c 17.188636,1.042412 33.137338,16.934029 34.247069,34.124489 l 0.197623,3.061314 -1.02202,1.02202 c -0.981592,0.981592 -1.135112,1.02202 -3.880994,1.02202 -2.063909,0 -2.859521,0.115872 -2.860939,0.416666 -0.0011,0.229167 -0.217802,1.848446 -0.481602,3.598398 -1.728333,11.465112 -9.856644,21.230676 -20.848272,25.047657 -4.758617,1.652489 -11.931093,2.100313 -16.829637,1.050782 z"
         id="path77" />
      <path
         style="fill:#e3eefb"
         d="M 36.541273,81.806975 C 25.106786,79.257567 16.255228,70.944893 12.78821,59.5 11.956638,56.754915 11.879416,56.032655 11.879416,51 c 0,-5.032268 0.07727,-5.755126 0.908625,-8.5 1.941876,-6.411477 5.640344,-12.04663 10.376738,-15.810468 5.448938,-4.330072 10.226135,-6.215183 18.251888,-7.202306 L 43,19.292485 v -2.162796 c 0,-2.43812 0.537455,-3.769489 1.792931,-4.4414 1.956163,-1.046906 9.90949,0.56629 15.368265,3.117189 11.397331,5.326002 19.53808,15.896443 21.683256,28.154852 0.612497,3.500052 0.615573,4.827783 0.01388,5.991328 -0.665202,1.286359 -1.836653,1.715009 -4.686925,1.715009 H 74.707515 L 74.514171,53.25 c -0.976559,7.997234 -3.52833,13.803891 -8.35919,19.021666 -4.008391,4.329432 -8.657214,7.215579 -14.394368,8.936509 -2.470531,0.741067 -3.707438,0.896155 -7.92728,0.993953 -3.638639,0.08433 -5.624064,-0.02326 -7.29206,-0.395153 z"
         id="path76" />
      <path
         style="fill:#dbebfb"
         d="M 38.333333,82.102462 C 28.265235,80.410018 19.581064,74.067012 15.006054,65.063982 8.4201733,52.103817 11.928038,35.618958 23.173318,26.682746 c 5.43983,-4.322834 10.221731,-6.208905 18.243349,-7.19552 L 43,19.292485 l 5.18e-4,-1.896243 c 6.31e-4,-2.310329 0.799879,-4.054788 2.152114,-4.697262 1.949064,-0.926039 9.645029,0.747362 15.019092,3.265733 4.172217,1.955167 7.386674,4.23516 10.840872,7.689358 5.964296,5.964296 9.504635,12.864044 10.855864,21.156933 0.541766,3.324983 0.542873,3.617692 0.01784,4.718697 -0.71617,1.501825 -2.208742,2.136966 -5.021836,2.136966 H 74.707515 L 74.498136,53.25 c -0.691382,5.228246 -1.66385,8.485998 -3.680936,12.331081 -5.536026,10.553087 -16.062339,16.835832 -27.983867,16.702479 -2.016666,-0.02256 -4.041666,-0.104052 -4.5,-0.181098 z"
         id="path75" />
      <path
         style="fill:#d2e5fa"
         d="M 37.24461,81.805489 C 29.886455,80.475196 22.521788,75.833074 17.79627,69.546746 15.698374,66.755928 13.494704,62.062806 12.609236,58.5 c -1.04977,-4.223896 -1.052809,-10.769308 -0.0069,-14.958998 2.715367,-10.877658 11.081358,-19.574965 21.803763,-22.66725 1.518337,-0.43788 3.735613,-0.896498 4.927279,-1.019152 4.263186,-0.438791 4,-0.247539 4,-2.906726 0,-2.1584 0.07628,-2.408773 1.022064,-3.354553 1.008893,-1.008893 1.055067,-1.019444 3.583333,-0.8188 C 60.282771,13.754146 72.358091,22.163112 78.287094,33.9084 80.341397,37.977952 82,44.1485 82,47.72163 c 0,1.393592 -0.15784,1.820826 -0.974359,2.637344 -0.915169,0.915169 -1.136993,0.974359 -3.651562,0.974359 H 74.696875 L 74.53584,52.416667 C 74.447271,53.0125 74.208832,54.625 74.005977,56 72.661081,65.115996 66.561426,73.816636 58.298147,78.405884 52.148515,81.821258 44.322049,83.085031 37.24461,81.805489 Z"
         id="path74" />
      <path
         style="fill:#c9e3fa"
         d="M 38.5,81.986432 C 35.911863,81.583673 32.364733,80.504827 29.787599,79.336589 26.57453,77.880077 23.736297,75.807767 20.666667,72.677025 8.3850743,60.150925 8.8518256,40.282597 21.711889,28.184773 27.144035,23.0746 33.996424,20.149128 41.833333,19.594382 L 43.166667,19.5 43.358258,17.03372 c 0.173975,-2.239508 0.289394,-2.553667 1.255259,-3.416666 1.285464,-1.148563 1.994548,-1.17874 6.434885,-0.273857 12.339788,2.514689 22.129606,10.165904 27.492223,21.4865 2.539161,5.360221 4.043216,12.741052 3.005342,14.748079 -0.679341,1.313701 -1.185694,1.514505 -4.3793,1.736695 L 74.5,51.5 74.254053,54 c -0.504826,5.131464 -2.688601,10.892368 -5.749198,15.166667 -1.672991,2.336428 -5.646631,6.239141 -7.947087,7.805238 -2.45248,1.669591 -6.740213,3.562028 -9.891101,4.365544 C 47.435664,82.161394 41.618323,82.471697 38.5,81.986432 Z"
         id="path73" />
      <path
         style="fill:#c2ddf9"
         d="M 38.155482,81.851106 C 30.863105,80.717519 23.812389,76.694795 19.017571,70.932139 16.400615,67.786948 13.57704,62.148155 12.625377,58.166667 11.684867,54.231844 11.620292,48.297296 12.476667,44.5 13.890821,38.229422 16.468912,33.548442 21.008651,29.008672 26.272619,23.74467 32.219403,20.845799 39.667615,19.913011 l 3.499052,-0.438209 0.369565,-2.629524 c 0.560035,-3.984753 1.694299,-4.491499 7.54697,-3.371698 14.657525,2.804448 26.485195,14.165251 29.954266,28.771902 0.361864,1.52364 0.688969,3.73739 0.7269,4.919445 0.06236,1.943272 -0.01839,2.236737 -0.842748,3.062936 -0.805963,0.807759 -1.231266,0.934531 -3.666667,1.092942 L 74.5,51.5 74.247377,53.833333 c -0.138943,1.283334 -0.552328,3.533334 -0.918633,5 -2.493085,9.982176 -10.623194,18.634015 -20.495411,21.810653 -5.146123,1.655896 -9.491772,2.013287 -14.677851,1.20712 z"
         id="path72" />
      <path
         style="fill:#bae1fa"
         d="M 39.333333,82.010105 C 32.418945,81.126212 25.910822,77.93381 20.988506,73.011494 10.767445,62.790433 8.9229049,47.353999 16.401259,34.622115 c 1.971746,-3.356894 6.970901,-8.306366 10.5199,-10.41535 3.62237,-2.152585 8.380228,-3.755157 12.578841,-4.236887 1.833333,-0.210348 3.520833,-0.434914 3.75,-0.499036 0.279537,-0.07822 0.416667,-0.84154 0.416667,-2.319355 0,-2.012833 0.08798,-2.290749 1.020335,-3.223105 0.993246,-0.993245 1.080608,-1.014733 3.290464,-0.809349 9.262666,0.860874 19.571053,6.444426 25.383472,13.748991 4.88111,6.134174 8.275536,14.52429 8.298515,20.511715 0.01123,2.926238 -0.555465,3.41345 -4.210869,3.620261 l -2.945845,0.166667 -0.377368,3 c -0.493851,3.926019 -1.264958,6.78509 -2.624454,9.73081 -4.099111,8.881851 -12.453836,15.629292 -21.781929,17.591517 -2.998053,0.63066 -7.687884,0.865977 -10.385655,0.521111 z"
         id="path71" />
      <path
         style="fill:#bbd9f8"
         d="M 39.333333,82.010105 C 27.960938,80.556328 18.087645,72.880877 14.019183,62.331003 12.387572,58.100094 11.893556,54.861299 12.092038,49.696537 12.29181,44.498191 12.954137,41.722833 15.01732,37.438679 18.190348,30.849956 23.365435,25.78749 30.108899,22.675525 c 3.300767,-1.523234 6.031486,-2.266933 10.224434,-2.78458 L 43.5,19.5 43.666667,17.05381 c 0.149598,-2.195668 0.267406,-2.532775 1.15033,-3.29164 0.907976,-0.780397 1.154747,-0.829549 3.207131,-0.6388 7.363537,0.684369 15.823127,4.55673 21.878056,10.01464 6.43949,5.804552 11.728361,16.709413 11.757269,24.241729 0.01123,2.926238 -0.555465,3.41345 -4.210869,3.620261 l -2.945845,0.166667 -0.377368,3 c -0.493851,3.926019 -1.264958,6.78509 -2.624454,9.73081 -4.099111,8.881851 -12.453836,15.629292 -21.781929,17.591517 -2.998053,0.63066 -7.687884,0.865977 -10.385655,0.521111 z"
         id="path70" />
      <path
         style="fill:#b3d4f8"
         d="M 41.166667,82.092208 C 27.222921,81.357784 15.301623,70.940651 12.485494,57.029871 11.714181,53.21983 11.956742,46.242808 12.984841,42.666667 c 2.567309,-8.93013 8.719831,-16.11277 17.124058,-19.991142 3.300767,-1.523234 6.031486,-2.266933 10.224434,-2.78458 L 43.5,19.5 43.692854,17.25606 c 0.323416,-3.763095 1.444844,-4.470964 5.933027,-3.745054 8.426644,1.362908 15.684576,5.1185 21.450031,11.099246 5.368515,5.568982 8.713074,11.898399 10.071614,19.060042 0.767912,4.048102 0.695329,5.395941 -0.346692,6.437962 -0.769086,0.769087 -1.169478,0.876592 -3.583333,0.962122 L 74.5,51.166667 74.095303,54.333333 C 71.947372,71.14041 57.909825,82.974077 41.166667,82.092208 Z"
         id="path69" />
      <path
         style="fill:#abd3f8"
         d="M 36.666667,81.48239 C 24.522458,78.878245 14.918556,69.168403 12.480937,57.029871 11.717225,53.226839 11.960038,46.238568 12.979998,42.666667 16.52112,30.265659 27.062507,21.44364 40.091047,19.977606 l 3.51647,-0.395691 0.231033,-2.300531 c 0.211324,-2.104269 0.327481,-2.374095 1.361571,-3.162833 1.118663,-0.853246 1.159435,-0.858202 3.881875,-0.471898 8.595588,1.219681 17.052997,5.565779 22.596199,11.611748 4.955558,5.405025 8.278179,12.06315 9.499214,19.035262 0.662687,3.783944 0.621708,4.514978 -0.314164,5.604416 C 80.131225,50.750215 79.812767,50.848145 77.279912,51 L 74.5,51.166667 l -0.422515,3 c -0.898807,6.381832 -2.833495,11.217977 -6.301844,15.752739 -4.584977,5.99472 -10.964634,9.983746 -18.547433,11.597205 -2.856503,0.607803 -9.653874,0.589286 -12.561541,-0.03422 z"
         id="path68" />
      <path
         style="fill:#aacef8"
         d="M 36.548752,81.475153 C 31.108461,80.261826 25.852033,77.440707 21.722172,73.517743 18.711877,70.658257 16.790064,68.019187 15.016555,64.309459 12.73479,59.536592 12.206698,56.9982 12.212952,50.833333 c 0.0049,-4.842211 0.08883,-5.607167 0.911296,-8.307027 2.290047,-7.517402 6.798184,-13.544567 13.311004,-17.796181 4.199652,-2.741563 8.075596,-3.991163 15.398081,-4.964324 l 2,-0.265801 L 44,17.333333 c 0.19637,-2.552803 0.387896,-2.91754 1.853615,-3.529956 0.950252,-0.397041 1.518169,-0.390731 4.042641,0.04492 12.888646,2.224186 22.79716,9.667673 28.27465,21.240521 1.751966,3.701554 3.173352,8.920795 3.263326,11.982723 0.05683,1.934073 -0.03738,2.341717 -0.693364,3 -0.646096,0.648364 -1.176238,0.779158 -3.560364,0.878392 l -2.801232,0.116595 -0.21876,2.216738 c -1.314216,13.317219 -9.843796,23.825485 -22.394983,27.590156 -2.475979,0.742658 -3.710139,0.897527 -7.932196,0.995377 -3.633121,0.0842 -5.624549,-0.02341 -7.284581,-0.393642 z M 48.666667,14.683442 c -0.641667,-0.12902 -1.486403,-0.340045 -1.877192,-0.468945 -0.45433,-0.149859 -0.769312,-0.08054 -0.873563,0.192236 -0.120489,0.31527 0.369405,0.437651 1.877192,0.468946 1.594445,0.03309 1.785316,-0.0089 0.873563,-0.192237 z"
         id="path67" />
      <path
         style="fill:#a4ccf8"
         d="m 37,81.519023 c -6.027463,-1.273627 -10.987605,-3.894385 -15.453834,-8.16524 -4.073364,-3.895177 -7.07933,-8.967175 -8.605677,-14.52045 -0.614954,-2.237371 -0.732077,-3.525257 -0.727537,-8 0.0049,-4.842211 0.08883,-5.607167 0.911296,-8.307027 2.290047,-7.517402 6.798184,-13.544567 13.311004,-17.796181 4.199652,-2.741563 8.075596,-3.991163 15.398081,-4.964324 1.988776,-0.264309 2.000505,-0.272349 2.089981,-1.432468 0.206848,-2.681917 -0.01574,-2.549701 3.814623,-2.265832 1.885801,0.139757 3.80373,0.403162 4.262063,0.585344 0.458333,0.182182 1.433333,0.474886 2.166667,0.650454 4.531244,1.084826 5.760691,1.486673 8.241701,2.693812 2.689699,1.308677 2.729284,1.317132 1.591632,0.339967 -0.641667,-0.551148 -1.879167,-1.468097 -2.75,-2.037664 -0.870833,-0.569568 -1.583333,-1.096954 -1.583333,-1.171969 0,-0.253814 2.440735,0.881467 4.141985,1.926598 5.722907,3.515761 11.004692,9.238785 13.947457,15.112624 1.436354,2.867002 2.826927,7.246016 3.411869,10.744224 0.47911,2.865286 0.496036,3.503818 0.114003,4.300578 -0.637926,1.330442 -1.769084,1.777992 -4.507996,1.783617 L 74.381304,51 74.165817,52.916667 C 73.792699,56.235389 73.33493,58.5517 72.624477,60.715845 69.434104,70.434205 61.372907,78.120883 51.333333,81.017816 48.12849,81.942578 40.299989,82.216324 37,81.519023 Z"
         id="path66" />
      <path
         style="fill:#a2caf6"
         d="M 37.037659,81.506836 C 26.770116,79.174586 19.211451,73.18168 14.804373,63.879121 12.756899,59.557268 12.221227,56.855628 12.217697,50.833333 c -0.0028,-4.860436 0.07737,-5.597005 0.904655,-8.307027 2.296791,-7.523795 6.801462,-13.54547 13.3129,-17.796181 4.199652,-2.741563 8.075596,-3.991163 15.398081,-4.964324 1.802485,-0.239551 2.009216,-0.348099 2.093319,-1.099134 0.253465,-2.263453 0.148858,-2.190983 2.977179,-2.062558 2.711406,0.123116 2.868053,0.152233 8.262836,1.535872 3.76775,0.966343 8.971692,3.442145 12.006749,5.712273 1.983696,1.483744 2.493251,1.728194 2.493251,1.196098 0,-0.296988 -2.419918,-2.636317 -5,-4.833489 -1.714294,-1.459875 -1.320231,-1.316435 1.395712,0.508043 7.691636,5.16698 13.50899,14.522453 15.083478,24.257263 0.427843,2.645283 0.43373,3.249655 0.04081,4.190037 -0.531324,1.271638 -0.798654,1.376908 -4.270003,1.681469 -1.420834,0.124658 -2.583756,0.321527 -2.584273,0.437488 C 74.331878,51.405123 74.166706,52.85 73.965346,54.5 72.418073,67.178775 63.601358,77.506427 51.333333,81.010505 48.03504,81.952586 40.19792,82.224683 37.037659,81.506836 Z"
         id="path65" />
      <path
         style="fill:#97d2f7"
         d="M 37.886583,81.670997 C 25.855487,79.501002 16.171082,70.632075 12.949045,58.833333 c -0.606374,-2.220472 -0.728745,-3.559054 -0.731348,-8 -0.0028,-4.860436 0.07737,-5.597005 0.904655,-8.307027 1.70742,-5.593142 4.383631,-10.006112 8.428585,-13.898416 C 27.076926,23.310442 33.246918,20.621355 41.75,19.824468 43.826263,19.629886 44,19.553411 44,18.834065 44,17.288893 44.314848,17 45.99884,17 c 4.443376,0 12.574979,2.317251 16.737373,4.769624 4.322714,2.54683 8.505924,5.781981 10.08953,7.802897 0.737508,0.941169 1.448365,1.722376 1.579682,1.736014 0.540135,0.0561 -2.486368,-4.421296 -5.052874,-7.475202 -0.46222,-0.55 0.250228,0.05 1.583219,1.333334 5.36305,5.163261 8.93614,12.20192 10.199653,20.092381 0.727386,4.542423 0.205246,5.249997 -4.06399,5.507283 -1.335712,0.0805 -2.502609,0.220401 -2.593105,0.310897 -0.0905,0.0905 -0.309659,1.441698 -0.487029,3.002672 -0.380177,3.345811 -1.648795,7.926336 -2.868165,10.355922 -4.190253,8.349045 -11.485246,14.30944 -20.456467,16.714013 -2.483799,0.665737 -10.227685,0.981527 -12.780084,0.521162 z"
         id="path64" />
      <path
         style="fill:#9bc8f6"
         d="M 37.886583,81.670997 C 26.316266,79.58411 17.024699,71.458788 13.530067,60.371625 8.0162744,42.878417 18.888511,24.331701 36.82742,20.629169 38.480673,20.287943 40.433333,20.004739 41.166667,19.999828 43.282241,19.985657 44,19.687211 44,18.821719 44,17.289761 44.317934,17 45.99884,17 c 4.443376,0 12.574979,2.317251 16.737373,4.769624 4.322714,2.54683 8.505924,5.781981 10.08953,7.802897 0.737508,0.941169 1.448365,1.722376 1.579682,1.736014 0.540135,0.0561 -2.486368,-4.421296 -5.052874,-7.475202 -0.46222,-0.55 0.250228,0.05 1.583219,1.333334 5.36305,5.163261 8.93614,12.20192 10.199653,20.092381 0.727386,4.542423 0.205246,5.249997 -4.06399,5.507283 -1.335712,0.0805 -2.502609,0.220401 -2.593105,0.310897 -0.0905,0.0905 -0.309659,1.441698 -0.487029,3.002672 -0.380177,3.345811 -1.648795,7.926336 -2.868165,10.355922 -4.190253,8.349045 -11.485246,14.30944 -20.456467,16.714013 -2.483799,0.665737 -10.227685,0.981527 -12.780084,0.521162 z"
         id="path63" />
      <path
         style="fill:#99c6f6"
         d="M 36.666667,81.346905 C 25.599392,78.97908 16.912879,71.104023 13.530067,60.371625 8.0162744,42.878417 18.888511,24.331701 36.82742,20.629169 c 1.653253,-0.341226 3.605913,-0.62443 4.339247,-0.629341 2.208208,-0.01479 2.750022,-0.284565 2.974478,-1.481019 0.203325,-1.083811 0.208138,-1.086173 1.948008,-0.955864 C 57.543391,18.420816 66.2488,22.953782 73.815033,32 c 1.150047,1.375 2.348198,3.00144 2.662559,3.61431 0.314361,0.612871 0.656176,1.0297 0.759589,0.926286 0.306531,-0.306531 -3.074849,-6.890246 -4.545748,-8.850798 -1.669336,-2.225046 -1.75205,-2.646163 -0.168224,-0.856465 4.641518,5.244843 8.162434,13.287683 8.718009,19.91458 0.172578,2.058516 0.117945,2.348292 -0.583511,3.094957 -0.695657,0.740494 -1.03853,0.823797 -3.390729,0.823797 -3.049159,0 -3.032988,-0.01833 -3.381682,3.833333 C 72.678783,67.827095 61.604504,79.439848 48,81.643938 44.794938,82.163196 39.879941,82.03438 36.666667,81.346905 Z"
         id="path62" />
      <path
         style="fill:#93c5f6"
         d="M 37.24461,81.494685 C 29.320976,79.9932 21.934831,75.116958 17.356824,68.365016 15.567278,65.725678 14.543801,63.587822 13.530067,60.371625 8.0162744,42.878417 18.888511,24.331701 36.82742,20.629169 c 1.653253,-0.341226 3.605913,-0.62443 4.339247,-0.629341 2.021948,-0.01354 2.819889,-0.330203 3.039782,-1.206325 C 44.384643,18.083519 44.590172,18 46.159139,18 c 4.250629,0 10.98201,1.762164 14.772092,3.867089 4.468479,2.481691 9.461665,6.733923 13.014598,11.083321 1.120549,1.371744 3.38115,5.484843 3.394916,6.176954 0.0041,0.20495 0.300741,0.747636 0.659255,1.205969 l 0.651843,0.833334 0.0074,-0.896801 C 78.668078,39.202284 77.301863,35.2922 75.9444,32.5 c -0.806357,-1.658616 -0.849714,-1.857757 -0.254006,-1.166667 1.793402,2.080555 4.282625,8.235984 5.123799,12.670294 0.730731,3.852099 0.678805,4.867012 -0.299041,5.844858 -0.723432,0.723431 -1.108094,0.818182 -3.321606,0.818182 -2.972201,0 -3.009273,0.0411 -3.30766,3.666666 -0.542261,6.588771 -3.393162,12.694813 -8.384432,17.95772 -4.025891,4.24499 -9.140249,7.289252 -14.668121,8.731029 -3.536121,0.92229 -10.024744,1.147958 -13.588723,0.472603 z"
         id="path61" />
      <path
         style="fill:#8bc2f6"
         d="M 37.587719,81.496522 C 26.252148,79.346793 17.301097,71.590569 13.687327,60.786463 10.021812,49.827655 12.788293,37.712914 20.833333,29.493273 c 5.360941,-5.477289 11.823889,-8.642414 19,-9.304945 3.696943,-0.341318 4.5,-0.519972 4.5,-1.001103 0,-0.755022 0.952326,-0.878277 3.955715,-0.511966 4.035945,0.492246 7.712658,1.523902 11.210952,3.145703 5.59627,2.594416 13.654285,10.187312 15.802519,14.890374 2.653833,5.809956 3.849172,8.679489 4.216442,10.121997 L 79.943303,48.5 l 0.02397,-2.166667 c 0.02055,-1.857545 -0.764687,-6.662877 -1.44345,-8.833333 -0.114667,-0.366667 0.106105,0.0083 0.490603,0.833333 0.808586,1.734944 1.873193,5.965955 2.17714,8.652489 0.176594,1.560886 0.103228,1.987916 -0.461312,2.685093 -0.603819,0.745685 -0.959313,0.840851 -3.536369,0.946685 -3.250517,0.133493 -3.001655,-0.142352 -3.341523,3.703826 -0.582131,6.587801 -3.615085,13.071682 -8.478862,18.126198 -3.971517,4.127265 -9.119457,7.162431 -14.540167,8.572716 -3.530676,0.918562 -9.736517,1.141663 -13.245614,0.476182 z"
         id="path60" />
      <path
         style="fill:#85c0f5"
         d="M 38.333333,81.631613 C 35.411533,81.184281 30.626547,79.550295 28.087749,78.132932 16.801773,71.832184 10.51723,59.115084 12.449297,46.487707 14.658082,32.051788 26.321629,21.151399 40.661679,20.12129 c 1.561077,-0.112139 3.347887,-0.437867 3.97069,-0.723839 0.982195,-0.450994 1.556701,-0.466356 4.331984,-0.11583 3.75671,0.474482 9.18799,2.241895 11.955469,3.890474 1.845872,1.09958 6.420502,4.812433 9.179857,7.450538 1.896085,1.812768 4.011186,5.161836 5.501234,8.7107 1.484572,3.535823 3.065754,8.358422 3.065754,9.350541 0,0.858531 1.19446,0.865119 1.652579,0.0091 0.188486,-0.352189 0.273968,-1.589689 0.189959,-2.75 l -0.152742,-2.109656 0.454157,2.151793 c 0.748975,3.548638 0.105539,4.325606 -3.804114,4.593579 -3.047134,0.208856 -2.816408,-0.07464 -3.191337,3.921295 -0.645059,6.874958 -4.189191,13.960917 -9.478259,18.950356 -4.000603,3.773966 -8.58617,6.299734 -13.730948,7.563119 -3.253163,0.798868 -9.151682,1.09596 -12.272629,0.618138 z M 80.026316,43.138889 c 0.01599,-0.388314 0.09498,-0.4673 0.201389,-0.201389 0.09629,0.240625 0.08445,0.528125 -0.02632,0.638889 -0.110764,0.110764 -0.189547,-0.08611 -0.175073,-0.4375 z"
         id="path59" />
      <path
         style="fill:#83bdf5"
         d="M 38.5,81.653099 C 26.044327,79.714779 15.972577,70.44125 12.947439,58.125664 c -1.068807,-4.3512 -1.002131,-10.441254 0.16293,-14.881718 2.92108,-11.133286 11.61068,-19.68529 22.722964,-22.363157 4.988754,-1.202202 12.95876,-1.656487 15.833334,-0.902489 3.153808,0.827241 7.485311,2.520001 9.380367,3.665865 2.13342,1.289993 6.49968,4.900892 8.985706,7.431182 3.368554,3.428532 6.710513,10.696471 8.127197,17.674653 0.139733,0.688287 0.381965,0.916667 0.972265,0.916667 1.00508,0 1.444634,-0.542838 1.620551,-2.001339 L 80.893309,46.5 l 0.05334,1.25 c 0.08205,1.922649 -0.684835,2.461263 -3.911001,2.746844 C 73.965194,50.768642 74.191689,50.487101 73.815169,54.5 73.17011,61.374958 69.625978,68.460917 64.33691,73.450356 60.336307,77.224322 55.75074,79.75009 50.605962,81.013475 47.409444,81.798433 41.455435,82.113016 38.5,81.653099 Z"
         id="path58" />
      <path
         style="fill:#76c5f5"
         d="M 38.861583,81.65371 C 31.935925,80.56428 25.932903,77.562532 21.185185,72.814815 17.225721,68.855351 14.302752,63.643253 12.947439,58.125664 11.878632,53.774464 11.945308,47.68441 13.110369,43.243946 16.02937,32.118584 24.595535,23.685098 35.850052,20.856472 c 3.117321,-0.783485 11.146612,-1.293387 13.824359,-0.87792 3.110344,0.482586 9.43666,2.779487 11.585901,4.206503 0.982963,0.652651 2.654821,1.965507 3.715241,2.917458 1.06042,0.951951 2.699878,2.376772 3.643242,3.166268 2.054623,1.719504 3.812268,4.234137 5.638294,8.066607 1.271755,2.669166 2.779764,7.320565 3.258459,10.050597 0.147503,0.84122 0.43665,1.293133 0.93246,1.457357 0.511525,0.169431 0.07451,0.314025 -1.516241,0.501677 -1.229195,0.145001 -2.369066,0.346557 -2.533048,0.447904 -0.163982,0.101346 -0.390197,1.351898 -0.502701,2.779005 C 72.84991,66.841785 63.102272,78.059151 49.91849,81.164736 47.244137,81.794709 41.400719,82.053125 38.861583,81.65371 Z"
         id="path57" />
      <path
         style="fill:#7bbbf5"
         d="M 38.861583,81.65371 C 27.145264,79.810692 17.671781,72.089326 13.939342,61.340825 11.706796,54.911644 11.716823,47.06117 13.965857,40.582109 17.192296,31.287319 25.612914,23.581817 35.202129,21.149313 39.371026,20.091786 46.613403,19.50362 49.655132,19.97556 c 3.127058,0.48518 9.450452,2.778836 11.60518,4.209495 0.982963,0.652651 2.654821,1.965507 3.715241,2.917458 1.06042,0.951951 2.699878,2.376772 3.643242,3.166268 2.054623,1.719504 3.812268,4.234137 5.638294,8.066607 1.271755,2.669166 2.779764,7.320565 3.258459,10.050597 0.147503,0.84122 0.43665,1.293133 0.93246,1.457357 0.511525,0.169431 0.07451,0.314025 -1.516241,0.501677 -1.229195,0.145001 -2.369066,0.346557 -2.533048,0.447904 -0.163982,0.101346 -0.390197,1.351898 -0.502701,2.779005 C 72.84991,66.841785 63.102272,78.059151 49.91849,81.164736 47.244137,81.794709 41.400719,82.053125 38.861583,81.65371 Z"
         id="path56" />
      <path
         style="fill:#6ac1f5"
         d="M 39.157345,81.652703 C 27.728202,80.158104 17.671979,72.097956 13.986579,61.478121 11.704517,54.902139 11.696798,47.118857 13.965857,40.582109 17.929507,29.163546 28.876523,20.997327 41.412578,20.107493 c 2.57561,-0.182822 2.920755,-0.142338 2.920755,0.342593 0,0.688646 0.314237,0.703449 0.80102,0.03773 0.939265,-1.284521 12.369623,1.777327 15.865647,4.249928 2.229015,1.576496 8.122364,6.743139 9.417566,8.256292 1.973192,2.30523 4.773389,8.507252 5.593586,12.388962 0.400977,1.897682 0.862503,3.710796 1.025615,4.029142 0.448152,0.874661 0.397848,0.921189 -0.995952,0.921189 -0.710885,0 -1.441034,0.1875 -1.622552,0.416667 -0.181519,0.229167 -0.430535,1.572486 -0.55337,2.985154 -0.646589,7.436128 -3.806805,13.998073 -9.358166,19.431513 -6.657095,6.515685 -16.140307,9.690314 -25.349382,8.486036 z"
         id="path55" />
      <path
         style="fill:#73b9f4"
         d="M 39.157345,81.652703 C 27.539254,80.133395 17.588043,72.039305 13.859064,61.075652 12.637771,57.4849 12.229919,54.237364 12.419312,49.611559 12.663216,43.654361 14.086782,39.058989 17.16,34.30828 22.152569,26.590558 30.384708,21.45097 39.5,20.360704 43.574306,19.873382 44.333333,19.895257 44.333333,20.5 c 0,0.642451 0.325967,0.637495 0.80102,-0.01218 0.939265,-1.284521 12.369623,1.777327 15.865647,4.249928 2.229015,1.576496 8.122364,6.743139 9.417566,8.256292 1.973192,2.30523 4.773389,8.507252 5.593586,12.388962 0.400977,1.897682 0.862503,3.710796 1.025615,4.029142 0.448152,0.874661 0.397848,0.921189 -0.995952,0.921189 -0.710885,0 -1.441034,0.1875 -1.622552,0.416667 -0.181519,0.229167 -0.430535,1.572486 -0.55337,2.985154 -0.646589,7.436128 -3.806805,13.998073 -9.358166,19.431513 -6.657095,6.515685 -16.140307,9.690314 -25.349382,8.486036 z"
         id="path54" />
      <path
         style="fill:#6bb5f4"
         d="M 39.229337,81.615172 C 27.196323,80.239828 16.711822,71.173336 13.269863,59.166667 12.234276,55.554204 12.155979,47.102197 13.124993,43.528154 15.994129,32.945833 23.337935,25.081212 33.5,21.708174 c 2.954699,-0.980738 9.353665,-1.963566 10.334294,-1.587263 0.421193,0.161627 0.509263,1.428066 0.564582,8.118627 l 0.06554,7.927129 0.184458,-7.400679 c 0.126515,-5.075947 0.30968,-7.525688 0.583098,-7.79864 1.107588,-1.105704 12.353907,2.085947 15.71451,4.459701 2.669234,1.885407 8.498152,6.993001 9.541146,8.360437 1.315917,1.725256 4.355445,8.471592 4.976652,11.045847 0.309688,1.283334 0.594415,3.003379 0.632727,3.822324 0.06592,1.409019 0.01651,1.498611 -0.919916,1.668134 l -0.989573,0.179144 -0.390536,3.498533 c -0.879147,7.875645 -3.698899,13.692612 -9.290257,19.165199 -4.753329,4.652359 -11.103028,7.697631 -17.673394,8.476038 -3.353452,0.397291 -3.904629,0.395296 -7.603996,-0.02753 z"
         id="path53" />
      <path
         style="fill:#74adf1"
         d="M 39.624585,81.614869 C 26.616805,80.328289 15.467848,70.100783 12.818144,57.023956 12.079178,53.377013 12.288527,46.538148 13.242337,43.166667 16.202064,32.704774 23.418057,25.060191 33.5,21.705812 c 3.768937,-1.253968 10.061332,-2.05186 10.556378,-1.338575 0.194424,0.280135 0.252929,2.527474 0.146638,5.632763 -0.09727,2.841667 -0.07024,6.816667 0.06007,8.833333 0.219167,3.391961 0.251131,3.067309 0.426636,-4.333333 0.104345,-4.4 0.296729,-8.233405 0.427519,-8.518678 0.201606,-0.439733 0.62935,-0.477248 2.810281,-0.24648 2.842939,0.300816 7.838125,1.652618 9.905814,2.68072 2.564456,1.275106 5.362624,3.377103 9.022369,6.777647 l 3.689035,3.427759 2.038729,4.439516 c 1.823855,3.971608 3.083201,8.14 3.083201,10.205292 0,0.344967 -0.35331,0.788192 -0.785132,0.984944 -0.705403,0.321403 -0.80876,0.648936 -1.017813,3.225401 -1.264379,15.582777 -14.07821,27.88951 -29.455831,28.290138 -1.416007,0.03689 -3.568494,-0.03123 -4.783306,-0.15139 z"
         id="path52" />
      <path
         style="fill:#63b3f3"
         d="M 35.5,80.877203 C 23.878852,77.797834 15.172156,68.641486 12.818144,57.023956 12.079178,53.377013 12.288527,46.538148 13.242337,43.166667 16.202064,32.704774 23.418057,25.060191 33.5,21.705812 c 3.768937,-1.253968 10.061332,-2.05186 10.556378,-1.338575 0.194424,0.280135 0.252929,2.527474 0.146638,5.632763 -0.09727,2.841667 -0.07024,6.816667 0.06007,8.833333 0.219167,3.391961 0.251131,3.067309 0.426636,-4.333333 0.104345,-4.4 0.296729,-8.233405 0.427519,-8.518678 0.201606,-0.439733 0.62935,-0.477248 2.810281,-0.24648 2.842939,0.300816 7.838125,1.652618 9.905814,2.68072 2.564456,1.275106 5.362624,3.377103 9.022369,6.777647 l 3.689035,3.427759 2.038729,4.439516 c 1.823855,3.971608 3.083201,8.14 3.083201,10.205292 0,0.344967 -0.34262,0.783322 -0.761378,0.974121 -0.681717,0.310611 -0.802857,0.718096 -1.157824,3.894609 -1.424493,12.747463 -9.863271,22.822088 -22.259445,26.574414 -1.824262,0.552204 -3.463425,0.730571 -7.654687,0.832948 -4.808055,0.117443 -5.628802,0.05198 -8.333333,-0.664665 z"
         id="path51" />
      <path
         style="fill:#67a8f0"
         d="M 35.5,80.873223 C 24.664517,77.987663 16.777252,70.320075 13.439627,59.42728 12.631226,56.78895 12.540583,55.973549 12.521345,51.166667 12.498443,45.444243 12.773625,43.850204 14.554209,39.39097 18.921746,28.453055 29.830016,20.707072 41.5,20.256713 l 2.333333,-0.09005 0.204221,9.5 c 0.112322,5.225 0.248423,9.95 0.302448,10.5 0.214906,2.187872 0.57952,-4.056357 0.618595,-10.593795 0.03644,-6.097325 0.107087,-6.952334 0.589732,-7.137542 0.718831,-0.275841 5.457012,0.375923 7.785004,1.070873 2.359206,0.704268 5.423784,2.13326 7.700518,3.590701 2.50702,1.604857 9.44852,8.311639 9.980274,9.642802 0.240276,0.601495 0.989869,2.293627 1.665761,3.760294 2.006088,4.353152 2.872158,8.800547 1.875297,9.629919 -0.268384,0.223291 -0.595412,1.794464 -0.824491,3.961185 -1.344677,12.718516 -9.816119,22.856295 -22.242672,26.617816 -1.824262,0.552204 -3.463425,0.730571 -7.654687,0.832948 -4.817551,0.117675 -5.62346,0.05301 -8.333333,-0.668645 z"
         id="path50" />
      <path
         style="fill:#5ab1f3"
         d="M 36.833333,81.158857 C 33.800884,80.490398 31.786007,79.743879 28.611837,78.112763 21.427877,74.421128 15.977547,67.720787 13.454747,59.479454 12.629032,56.782058 12.540669,55.995106 12.521345,51.166667 12.498443,45.444243 12.773625,43.850204 14.554209,39.39097 18.921746,28.453055 29.830016,20.707072 41.5,20.256713 l 2.333333,-0.09005 0.204221,9.5 c 0.112322,5.225 0.248423,9.95 0.302448,10.5 0.214906,2.187872 0.57952,-4.056357 0.618595,-10.593795 0.03644,-6.097325 0.107087,-6.952334 0.589732,-7.137542 0.718831,-0.275841 5.457012,0.375923 7.785004,1.070873 2.359206,0.704268 5.423784,2.13326 7.700518,3.590701 2.50702,1.604857 9.44852,8.311639 9.980274,9.642802 0.240276,0.601495 0.989869,2.293627 1.665761,3.760294 2.011457,4.364803 2.940866,9.190469 1.850632,9.608831 -0.319531,0.122616 -0.540051,1.012349 -0.690426,2.785663 -0.485867,5.729674 -2.564271,11.600232 -5.624496,15.886679 -2.041624,2.859697 -6.33313,6.862822 -9.153411,8.53832 -2.982655,1.771962 -6.486795,3.137669 -9.798132,3.818733 -3.105127,0.638652 -9.578341,0.649395 -12.43072,0.02063 z"
         id="path49" />
      <path
         style="fill:#59aef2"
         d="M 36.833333,81.158857 C 25.203336,78.595198 16.439009,70.259161 13.25509,58.732822 12.225906,55.006996 12.233497,46.985916 13.269822,43.166667 16.200735,32.36514 24.797293,23.863065 35.502558,21.178288 c 2.383131,-0.597667 7.799295,-1.225446 8.247442,-0.95595 0.1375,0.08269 0.250549,3.328987 0.251219,7.214001 6.71e-4,3.885014 0.111105,9.238661 0.24541,11.896994 0.217614,4.307291 0.267659,4.597521 0.459819,2.666667 0.118596,-1.191667 0.23521,-5.616667 0.259142,-9.833333 0.02393,-4.216667 0.125881,-7.973273 0.226552,-8.348013 0.172698,-0.642854 0.33721,-0.667166 2.912115,-0.430344 7.571727,0.696395 12.208005,3.061801 19.787942,10.095708 2.106523,1.954777 2.275403,2.227185 4.8662,7.849315 1.625049,3.526422 2.513044,8.08412 1.67672,8.605895 -0.200501,0.125091 -0.466118,1.427439 -0.590259,2.894105 -0.49009,5.790184 -2.55612,11.643298 -5.629264,15.94784 -2.041624,2.859697 -6.33313,6.862822 -9.153411,8.53832 -2.982655,1.771962 -6.486795,3.137669 -9.798132,3.818733 -3.105127,0.638652 -9.578341,0.649395 -12.43072,0.02063 z"
         id="path48" />
      <path
         style="fill:#53adf3"
         d="M 37.037659,81.151785 C 28.504764,79.3006 21.703868,74.619927 17.066386,67.406687 13.746651,62.243098 12.166054,56.245351 12.435248,49.833333 12.640764,44.93809 13.472706,41.557565 15.470462,37.5 20.366139,27.556579 29.448876,21.367767 40.664092,20.333521 42.223841,20.189684 43.6125,20.139652 43.75,20.222338 c 0.1375,0.08269 0.250682,4.003987 0.251516,8.714001 8.34e-4,4.710014 0.112658,10.288661 0.248498,12.396994 l 0.246982,3.833334 0.207934,-2.5 c 0.114364,-1.375 0.229588,-5.95 0.256054,-10.166667 0.02646,-4.216667 0.13623,-7.995237 0.243922,-8.396822 0.182298,-0.679797 0.348018,-0.719175 2.402801,-0.570947 6.617314,0.47736 11.348202,2.432351 16.225626,6.705071 5.662046,4.960064 5.818385,5.13993 7.471644,8.596031 2.551862,5.334611 3.97416,10.614501 2.965819,11.00979 -0.300904,0.117961 -0.465281,1.027652 -0.526578,2.914186 -0.171464,5.277128 -2.336845,11.553153 -5.528622,16.023864 -2.041624,2.859697 -6.33313,6.862822 -9.153411,8.53832 -2.982655,1.771962 -6.486795,3.137669 -9.798132,3.818733 -3.143274,0.646497 -9.277557,0.6533 -12.226394,0.01356 z"
         id="path47" />
      <path
         style="fill:#48b3f3"
         d="M 37.037659,81.151785 C 27.167531,79.010491 19.26046,72.762603 15.143363,63.851687 13.117422,59.466802 12.520711,56.482279 12.540539,50.833333 12.561331,44.909912 13.157155,42.198469 15.470462,37.5 20.403938,27.479807 29.858669,21.084857 40.702156,20.433897 l 3.202156,-0.192233 0.166707,14.437389 0.166707,14.437389 0.751398,0.608446 c 0.532969,0.431572 1.249384,0.594802 2.464471,0.561513 l 1.713072,-0.04693 -1.741815,-0.211549 C 46.466853,49.911567 45.491853,49.624931 45.258185,49.390951 44.928746,49.061073 44.854033,46.74232 44.925502,39.0661 c 0.05069,-5.444689 0.182707,-11.007108 0.293364,-12.360933 l 0.201195,-2.4615 2.398708,0.181414 c 3.568895,0.269915 6.660966,1.140562 10.011818,2.819068 4.069204,2.038342 5.157108,2.83476 8.843523,6.474048 2.950324,2.912607 3.285625,3.383363 4.75581,6.677064 0.869935,1.948942 1.882429,4.719371 2.249987,6.156508 0.621801,2.431219 0.62955,2.641301 0.111395,3.020185 -0.444944,0.325351 -0.475726,0.505008 -0.153125,0.893718 0.308685,0.371942 0.321319,1.218228 0.05365,3.593752 -0.878815,7.7994 -3.892101,13.86177 -9.599053,19.312141 -4.185815,3.997624 -9.153229,6.599346 -14.828723,7.766661 -3.143274,0.646497 -9.277557,0.6533 -12.226394,0.01356 z"
         id="path46" />
      <path
         style="fill:#4babf2"
         d="M 37.037659,81.151785 C 27.173242,79.01173 19.260135,72.7619 15.149055,63.864005 9.3228291,51.253904 12.987244,35.743651 23.833333,27.106332 28.808842,23.14407 34.733714,20.823404 40.86882,20.433839 l 3.035486,-0.192746 0.16671,14.437675 0.16671,14.437674 0.751398,0.608446 c 0.532969,0.431572 1.249384,0.594802 2.464471,0.561513 l 1.713072,-0.04693 -1.741815,-0.211549 C 46.466853,49.911567 45.491853,49.624931 45.258185,49.390951 44.928746,49.061073 44.854033,46.74232 44.925502,39.0661 c 0.05069,-5.444689 0.182707,-11.007108 0.293364,-12.360933 l 0.201195,-2.4615 2.398708,0.181414 c 3.568895,0.269915 6.660966,1.140562 10.011818,2.819068 4.069204,2.038342 5.157108,2.83476 8.843523,6.474048 2.950324,2.912607 3.285625,3.383363 4.75581,6.677064 0.869935,1.948942 1.882429,4.719371 2.249987,6.156508 0.621801,2.431219 0.62955,2.641301 0.111395,3.020185 -0.444944,0.325351 -0.475726,0.505008 -0.153125,0.893718 0.308685,0.371942 0.321319,1.218228 0.05365,3.593752 -0.878815,7.7994 -3.892101,13.86177 -9.599053,19.312141 -4.185815,3.997624 -9.153229,6.599346 -14.828723,7.766661 -3.143274,0.646497 -9.277557,0.6533 -12.226394,0.01356 z"
         id="path45" />
      <path
         style="fill:#45a9f2"
         d="M 37.034871,81.151216 C 28.132017,79.21992 20.523821,73.656364 16.203796,65.91832 9.0400878,53.086662 12.349484,36.251533 23.833333,27.106332 28.818432,23.136433 34.733159,20.823319 40.899916,20.431984 l 3.066582,-0.194601 0.100084,14.3467 c 0.09462,13.562634 0.134788,14.385025 0.735081,15.047975 0.607533,0.670946 0.917482,0.699073 7.166666,0.650343 L 58.5,50.23147 52.195298,49.965795 C 47.454882,49.766038 45.772476,49.582 45.414523,49.224047 45.010886,48.82041 44.975828,47.03543 45.184108,37.492468 l 0.245658,-11.255507 4.201784,0.202175 c 3.409332,0.164045 4.610414,0.363783 6.36845,1.05906 4.509851,1.783581 6.348536,2.954595 9.869698,6.285774 2.885932,2.730223 3.667485,3.69194 4.634966,5.703414 1.574808,3.274162 2.784063,6.682787 3.030881,8.543392 0.187046,1.41002 0.138227,1.559555 -0.582359,1.783807 L 72.166667,50.059354 73,50.300551 c 0.80508,0.233019 0.82995,0.32525 0.733555,2.720323 -0.206286,5.125441 -2.401303,11.394809 -5.517959,15.760299 -2.041624,2.859697 -6.33313,6.862822 -9.153411,8.53832 -2.982655,1.771962 -6.486795,3.137669 -9.798132,3.818733 -3.144354,0.64672 -9.277795,0.653235 -12.229182,0.01299 z"
         id="path44" />
      <path
         style="fill:#569cee"
         d="M 37.034871,81.151216 C 28.444675,79.287745 21.215372,74.177724 16.800241,66.848399 8.9114189,53.752586 11.952624,36.567574 23.833333,27.106332 c 5.102288,-4.063223 11.2645,-6.436802 17,-6.548111 l 3,-0.05822 0.175637,14.333333 c 0.0966,7.883334 0.209099,14.360119 0.25,14.392857 0.0409,0.03274 0.310078,0.295239 0.598173,0.583334 0.453741,0.453741 1.757965,0.516451 9.75,0.468799 l 9.22619,-0.05501 -9,-0.304116 c -7.785001,-0.263061 -9.058698,-0.379384 -9.434802,-0.861656 -0.343901,-0.440978 -0.392136,-2.299754 -0.23072,-8.890873 0.203661,-8.31612 0.340954,-10.102346 0.745403,-9.697898 0.117756,0.117756 0.920547,-0.481721 1.783981,-1.332171 1.706243,-1.680587 1.373174,-1.622164 5.469472,-0.959398 0.55,0.08899 1.825449,0.292556 2.834332,0.452373 1.008882,0.159817 2.658882,0.757473 3.666666,1.328123 1.007784,0.570651 2.132335,1.18119 2.499002,1.356755 1.286566,0.616024 7.081663,6.534246 7.818988,7.985113 1.181685,2.325255 2.909497,7.067768 3.144927,8.632226 0.208638,1.386416 0.180933,1.444387 -0.874224,1.829267 L 71.166667,50.158534 72.5,50.329267 73.833333,50.5 73.733555,53 c -0.205286,5.143526 -2.395562,11.407642 -5.517959,15.781173 -2.041624,2.859697 -6.33313,6.862822 -9.153411,8.53832 -2.982655,1.771962 -6.486795,3.137669 -9.798132,3.818733 -3.144354,0.64672 -9.277795,0.653235 -12.229182,0.01299 z"
         id="path43" />
      <path
         style="fill:#41a9f2"
         d="M 37.5,81.202178 C 19.051305,77.652487 8.1040653,58.97003 14.040647,41.166667 16.610379,33.460234 22.134407,27.146076 29.5,23.496085 c 3.87388,-1.919686 7.515886,-2.863779 11.333333,-2.937864 l 3,-0.05822 0.175637,14.333333 c 0.0966,7.883334 0.209099,14.360119 0.25,14.392857 0.0409,0.03274 0.310078,0.295239 0.598173,0.583334 0.453741,0.453741 1.757965,0.516451 9.75,0.468799 l 9.22619,-0.05501 -9,-0.304116 c -7.785001,-0.263061 -9.058698,-0.379384 -9.434802,-0.861656 -0.343901,-0.440978 -0.392136,-2.299754 -0.23072,-8.890873 0.203661,-8.31612 0.340954,-10.102346 0.745403,-9.697898 0.117756,0.117756 0.920547,-0.481721 1.783981,-1.332171 1.706243,-1.680587 1.373174,-1.622164 5.469472,-0.959398 0.55,0.08899 1.825449,0.292556 2.834332,0.452373 1.008882,0.159817 2.658882,0.757473 3.666666,1.328123 1.007784,0.570651 2.132335,1.18119 2.499002,1.356755 1.286566,0.616024 7.081663,6.534246 7.818988,7.985113 1.176682,2.31541 2.90913,7.065226 3.142124,8.614696 0.203824,1.35548 0.167489,1.434012 -0.874225,1.889476 l -1.086887,0.475215 1.214337,0.02719 c 0.667885,0.01496 1.282424,0.214691 1.365643,0.443858 0.270694,0.745437 -0.391195,5.983441 -1.067664,8.449192 C 69.862139,69.466677 61.933828,77.4239 51.42728,80.528392 47.812711,81.596431 41.209368,81.915894 37.5,81.202178 Z"
         id="path42" />
      <path
         style="fill:#3ea8f2"
         d="M 37.5,81.202178 C 19.468571,77.732772 8.4025099,59.476807 13.737154,42 17.425621,29.916228 29.064742,20.74688 40.967389,20.547909 L 43.833333,20.5 44.00897,34.833333 c 0.0966,7.883334 0.209099,14.360119 0.25,14.392857 0.0409,0.03274 0.310078,0.295239 0.598173,0.583334 0.45357,0.45357 1.76098,0.516889 9.75,0.4722 6.678085,-0.03736 8.443675,-0.12028 6.392857,-0.30025 -1.558333,-0.136753 -5.533333,-0.265825 -8.833333,-0.286828 -3.3,-0.021 -6.225,-0.180473 -6.5,-0.354377 -0.412526,-0.260871 -0.484879,-1.128902 -0.413567,-4.961631 l 0.08643,-4.645443 4.862479,-4.783264 c 4.059437,-3.993305 5.008542,-4.768832 5.7469,-4.695875 0.486431,0.04807 1.18442,0.105719 1.551087,0.128121 0.815763,0.04984 3.322271,0.834983 4.289724,1.343721 0.390652,0.205426 2.153552,1.69991 3.917555,3.321077 3.594062,3.30304 4.917849,5.408588 6.425602,10.220232 1.099398,3.508471 1.09413,3.984596 -0.04955,4.478476 l -0.916666,0.395849 1.221404,0.114318 c 0.671772,0.06287 1.286312,0.29353 1.365643,0.512567 0.26463,0.730656 -0.406425,5.994778 -1.074731,8.430775 C 69.862139,69.466677 61.933828,77.4239 51.42728,80.528392 47.812711,81.596431 41.209368,81.915894 37.5,81.202178 Z"
         id="path41" />
      <path
         style="fill:#41a4f1"
         d="M 37.5,81.202178 C 27.316241,79.242733 18.78013,72.37717 14.815174,62.956855 12.455033,57.34941 11.844741,49.748246 13.283053,43.874336 14.642832,38.321143 17.572021,33.117609 21.56272,29.165987 26.861521,23.919072 34.202452,20.694117 41.166667,20.553749 L 43.833333,20.5 44.00897,34.833333 c 0.0966,7.883334 0.209099,14.360119 0.25,14.392857 0.0409,0.03274 0.310078,0.295239 0.598173,0.583334 0.453531,0.453531 1.761672,0.51699 9.75,0.47298 5.90499,-0.03253 8.446244,-0.138498 7.059524,-0.294372 -1.191667,-0.133948 -5.064028,-0.261075 -8.605247,-0.282504 -3.72074,-0.02251 -6.710743,-0.184618 -7.083334,-0.384023 -0.577267,-0.308944 -0.644753,-0.727621 -0.644753,-4 0,-2.945927 0.0924,-3.654938 0.476341,-3.654938 0.261987,0 2.774487,-2.26751 5.583333,-5.038912 2.808846,-2.771401 5.447313,-5.16876 5.863259,-5.327465 0.482652,-0.184156 1.411304,-0.117938 2.566787,0.183027 1.910522,0.497628 4.75619,2.615028 7.900677,5.878723 1.867445,1.938241 3.921674,6.007388 4.865532,9.63796 0.07149,0.275 0.155657,0.95 0.18703,1.5 0.04589,0.80444 -0.08963,1.02083 -0.692959,1.106517 -1.172656,0.166544 -0.878956,0.726816 0.381004,0.726816 0.622052,0 1.199091,0.1875 1.28231,0.416667 0.270694,0.745437 -0.391195,5.983441 -1.067664,8.449192 C 69.862139,69.466677 61.933828,77.4239 51.42728,80.528392 47.812711,81.596431 41.209368,81.915894 37.5,81.202178 Z"
         id="path40" />
      <path
         style="fill:#3ca6f2"
         d="M 37.5,81.197902 C 31.009277,79.937134 25.715129,77.053148 21.145031,72.288536 17.159908,68.133795 14.82748,64.024269 13.426931,58.689943 12.2794,54.319292 12.219001,48.196894 13.280773,43.874336 14.646331,38.315033 17.573978,33.115671 21.56272,29.165987 26.861521,23.919072 34.202452,20.694117 41.166667,20.553749 L 43.833333,20.5 V 28 c 0,4.125 0.0375,10.544318 0.08333,14.265152 0.08237,6.686934 0.09279,6.774611 0.901515,7.583333 0.787182,0.787182 0.987222,0.818182 5.27973,0.818182 2.453852,0 7.44817,-0.1125 11.098485,-0.25 l 6.636936,-0.25 -4.5,-0.210622 c -2.475,-0.115842 -7.247361,-0.228342 -10.605247,-0.25 -3.489645,-0.02251 -6.381471,-0.187209 -6.75,-0.38444 -0.577267,-0.308944 -0.644753,-0.727621 -0.644753,-4 0,-2.945927 0.0924,-3.654938 0.476341,-3.654938 0.261987,0 2.774487,-2.26751 5.583333,-5.038912 2.808846,-2.771401 5.447313,-5.16876 5.863259,-5.327465 1.461487,-0.557632 4.177946,0.487376 6.643855,2.555857 3.210085,2.692719 4.839933,4.408759 5.886375,6.197669 1.084668,1.854257 2.7871,6.646144 2.938736,8.271748 0.106288,1.139456 0.08014,1.165482 -1.558565,1.551335 L 69.5,50.269336 l 1.875852,0.032 c 1.067876,0.01822 2.016647,0.211468 2.202733,0.448666 0.447683,0.57065 -0.06869,5.420482 -0.899602,8.449192 C 69.862139,69.466677 61.933828,77.4239 51.42728,80.528392 47.80237,81.599487 41.201153,81.91682 37.5,81.197902 Z"
         id="path39" />
      <path
         style="fill:#3aa6f2"
         d="M 37.5,81.197902 C 31.009277,79.937134 25.715129,77.053148 21.145031,72.288536 15.285007,66.179094 12.5585,59.419281 12.5585,51 c 0,-3.147875 0.17716,-4.890172 0.724553,-7.125664 C 16.491025,30.773318 27.43198,21.482879 40.868851,20.450039 l 2.73813,-0.210469 0.231767,1.854998 c 0.127471,1.020249 0.127136,2.024294 -7.46e-4,2.231212 -0.127882,0.206917 -0.122111,5.871719 0.01282,12.58845 l 0.245337,12.212237 0.806755,0.806755 0.806756,0.806756 13.736422,-0.245004 c 11.472918,-0.204632 13.795985,-0.169477 14.097895,0.213344 0.483467,0.613035 0.0034,5.325585 -0.865009,8.490874 C 69.862139,69.466677 61.933828,77.4239 51.42728,80.528392 47.80237,81.599487 41.201153,81.91682 37.5,81.197902 Z M 53.663275,49.688719 c -4.126866,-0.119475 -7.689366,-0.332166 -7.916667,-0.472646 -0.267365,-0.16524 -0.413275,-1.109239 -0.413275,-2.673778 v -2.418361 l 5.997429,-5.963944 c 3.298586,-3.280169 6.23993,-6.099654 6.53632,-6.265522 0.343966,-0.192494 0.815685,-0.153443 1.30412,0.107959 0.420876,0.225246 0.938984,0.302152 1.151351,0.170902 0.212368,-0.13125 0.639171,-0.01852 0.948451,0.250521 0.309281,0.269037 0.741833,0.546231 0.961227,0.615987 0.874387,0.278011 5.895825,5.163286 6.969791,6.780795 1.941056,2.923442 3.881209,8.895209 3.133467,9.644773 -0.442499,0.443578 -7.95891,0.533472 -18.672214,0.223314 z"
         id="path38" />
      <path
         style="fill:#36a5f2"
         d="M 37.5,81.197902 C 31.009277,79.937134 25.715129,77.053148 21.145031,72.288536 15.2828,66.176793 12.570309,59.442469 12.570309,51 c 0,-3.129918 0.178814,-4.902924 0.718648,-7.125664 2.885801,-11.882138 12.556888,-20.941239 24.597466,-23.04094 1.577164,-0.275035 3.522922,-0.500063 4.323907,-0.500063 h 1.456337 v 4.279036 c 0,2.353469 0.09988,8.835171 0.221962,14.403781 0.221532,10.105063 0.223518,10.1263 1.021505,10.924287 l 0.799541,0.799541 13.736422,-0.245004 c 11.472918,-0.204632 13.795985,-0.169477 14.097895,0.213344 0.483467,0.613035 0.0034,5.325585 -0.865009,8.490874 C 69.862139,69.466677 61.933828,77.4239 51.42728,80.528392 47.80237,81.599487 41.201153,81.91682 37.5,81.197902 Z M 55.352204,49.617076 C 50.24258,49.46105 46.06051,49.193843 45.878431,49.011764 c -0.212414,-0.212414 0.01326,-0.590591 0.647796,-1.085537 1.140722,-0.889784 8.696998,-8.548445 11.763697,-11.923092 2.380994,-2.620087 3.175641,-2.876306 4.648001,-1.49866 0.492475,0.460795 1.855702,1.588733 3.029394,2.506528 2.110373,1.650255 4.199049,4.374709 4.591404,5.988997 0.111399,0.458333 0.463434,1.358333 0.7823,2 0.318866,0.641667 0.683709,1.932734 0.810762,2.86904 l 0.231006,1.702373 -1.274729,0.210625 c -1.45158,0.239846 -3.045427,0.223159 -15.755858,-0.164962 z"
         id="path37" />
      <path
         style="fill:#4796ee"
         d="M 37.5,81.197902 C 34.802319,80.6739 31.473038,79.587558 29.523797,78.595271 25.412035,76.502125 20.26403,72.006509 17.77268,68.333333 10.657982,57.843627 10.819642,43.491921 18.168802,33.166667 c 1.641856,-2.306738 5.284026,-5.887825 7.578062,-7.450972 4.217301,-2.873652 9.795699,-4.814856 15.064985,-5.242403 l 2.854818,-0.231638 v 4.324875 c 0,2.378681 0.09988,8.881011 0.221962,14.449621 0.221532,10.105063 0.223518,10.1263 1.021505,10.924287 l 0.799541,0.799541 13.736422,-0.245004 c 11.472918,-0.204632 13.795985,-0.169477 14.097895,0.213344 0.483467,0.613035 0.0034,5.325585 -0.865009,8.490874 C 69.862139,69.466677 61.933828,77.4239 51.42728,80.528392 47.80237,81.599487 41.201153,81.91682 37.5,81.197902 Z m 22,-31.529266 c -4.033333,-0.137955 -8.008333,-0.267669 -8.833333,-0.288252 l -1.5,-0.03742 6.5,-6.673564 c 3.575,-3.67046 6.618772,-6.672626 6.763937,-6.67148 0.145166,0.0011 0.57249,0.289543 0.949608,0.640882 0.377118,0.351339 1.060893,0.732974 1.519501,0.848077 0.458607,0.115103 1.285281,0.540144 1.837052,0.944535 1.171181,0.858354 3.596568,4.119799 3.596568,4.836343 0,0.270908 0.281556,1.108989 0.625679,1.862403 0.344123,0.753414 0.771334,2.000041 0.949357,2.770281 0.270866,1.171932 0.236763,1.434213 -0.209011,1.60744 C 70.753291,49.875517 66.996009,49.92503 59.5,49.668636 Z"
         id="path36" />
      <path
         style="fill:#32a4f1"
         d="M 38.512973,81.295884 C 30.540727,80.134418 22.932223,75.471508 18.177738,68.833333 10.655406,58.33071 10.651747,43.727807 18.168802,33.166667 c 1.641856,-2.306738 5.284026,-5.887825 7.578062,-7.450972 4.217301,-2.873652 9.795699,-4.814856 15.064985,-5.242403 l 2.854818,-0.231638 v 4.324875 c 0,2.378681 0.09988,8.881011 0.221962,14.449621 0.221165,10.088314 0.224824,10.127606 1.016976,10.919758 L 45.700617,50.73092 59.600309,50.61546 73.5,50.5 73.439508,53.333333 C 73.226387,63.315528 66.435913,73.571734 56.833333,78.414995 51.625984,81.04143 44.47976,82.165178 38.512973,81.295884 Z M 59.5,49.668636 c -4.033333,-0.137955 -8.008333,-0.267669 -8.833333,-0.288252 l -1.5,-0.03742 6.5,-6.673564 c 3.575,-3.67046 6.618772,-6.672626 6.763937,-6.67148 0.145166,0.0011 0.57249,0.289543 0.949608,0.640882 0.377118,0.351339 1.060893,0.732974 1.519501,0.848077 0.458607,0.115103 1.285281,0.540144 1.837052,0.944535 1.171181,0.858354 3.596568,4.119799 3.596568,4.836343 0,0.270908 0.281556,1.108989 0.625679,1.862403 0.344123,0.753414 0.771334,2.000041 0.949357,2.770281 0.270866,1.171932 0.236763,1.434213 -0.209011,1.60744 C 70.753291,49.875517 66.996009,49.92503 59.5,49.668636 Z"
         id="path35" />
      <path
         style="fill:#399cf0"
         d="M 38.512973,81.295884 C 27.53775,79.696918 17.888487,71.753467 14.272676,61.340825 12.583979,56.477798 12.112059,49.613763 13.135098,44.794858 16.008238,31.261272 27.061919,21.634665 41.083333,20.454854 l 2.583334,-0.217371 v 4.32696 c 0,2.379829 0.09988,8.883097 0.221962,14.451707 0.221165,10.088314 0.224824,10.127606 1.016976,10.919758 L 45.700617,50.73092 59.600309,50.61546 73.5,50.5 73.439508,53.333333 C 73.226387,63.315528 66.435913,73.571734 56.833333,78.414995 51.625984,81.04143 44.47976,82.165178 38.512973,81.295884 Z M 55.25,49.418897 c -1.420833,-0.06248 -2.583333,-0.257297 -2.583333,-0.432918 0,-0.175622 0.185844,-0.319312 0.412987,-0.319312 0.227144,0 2.825318,-2.409007 5.773722,-5.353348 5.152563,-5.145465 5.393987,-5.338197 6.217057,-4.963181 0.470978,0.214592 1.048151,0.748598 1.282605,1.186681 0.234455,0.438083 0.69454,0.796514 1.022411,0.796514 0.787745,0 2.231739,1.847537 3.026993,3.872924 0.858512,2.186492 1.576875,4.89087 1.382641,5.205147 -0.150313,0.243211 -11.062567,0.248157 -16.535083,0.0075 z"
         id="path34" />
      <path
         style="fill:#30a2f1"
         d="M 38.5,81.296951 C 25.996846,79.493867 15.870509,69.862463 13.129722,57.166667 12.480388,54.158841 12.483123,47.865912 13.135098,44.794858 16.003832,31.282025 27.06424,21.634631 41.035511,20.458842 l 2.535512,-0.213383 0.166699,14.436705 0.166699,14.436705 0.899711,0.773899 0.89971,0.773899 h 14.030923 14.030923 l -0.201075,2.75 C 72.661206,65.772086 64.278637,76.383828 52.486253,80.100388 47.871103,81.554927 43.11214,81.96207 38.5,81.296951 Z M 55.25,49.418897 c -1.420833,-0.06248 -2.583333,-0.257297 -2.583333,-0.432918 0,-0.175622 0.185844,-0.319312 0.412987,-0.319312 0.227144,0 2.825318,-2.409007 5.773722,-5.353348 5.152563,-5.145465 5.393987,-5.338197 6.217057,-4.963181 0.470978,0.214592 1.048151,0.748598 1.282605,1.186681 0.234455,0.438083 0.69454,0.796514 1.022411,0.796514 0.787745,0 2.231739,1.847537 3.026993,3.872924 0.858512,2.186492 1.576875,4.89087 1.382641,5.205147 -0.150313,0.243211 -11.062567,0.248157 -16.535083,0.0075 z"
         id="path33" />
      <path
         style="fill:#2da1f1"
         d="M 38.5,81.296951 C 26.125532,79.512425 15.779705,69.699018 13.145766,57.247506 12.490011,54.147533 12.485521,47.873621 13.136854,44.794858 15.99807,31.270278 26.964733,21.709583 41.035538,20.472891 l 2.535538,-0.22285 0.166672,14.434414 0.166673,14.434414 0.899711,0.773899 0.89971,0.773899 h 14.030923 14.030923 l -0.201075,2.75 C 72.661206,65.772086 64.278637,76.383828 52.486253,80.100388 47.871103,81.554927 43.11214,81.96207 38.5,81.296951 Z M 57.25,49.418477 C 55.645833,49.357373 54.333602,49.200718 54.333929,49.070356 54.334746,48.745486 57.13601,47 57.656565,47 c 0.528911,0 5.676768,-4.982203 5.676768,-5.494095 0,-0.208167 0.215726,-0.669655 0.479391,-1.025528 0.453013,-0.611442 0.503449,-0.615031 0.916666,-0.06523 0.240502,0.319998 1.187277,0.847229 2.103943,1.171622 0.916667,0.324393 1.866581,0.716601 2.11092,0.871572 0.835438,0.529873 2.914407,6.294665 2.507497,6.95306 -0.149886,0.24252 -7.919033,0.246389 -14.20175,0.0071 z"
         id="path32" />
      <path
         style="fill:#29a0f1"
         d="M 38.5,81.296951 C 26.106426,79.509669 15.753831,69.677089 13.196077,57.264053 c -0.681998,-3.309805 -0.681998,-9.218301 0,-12.528106 C 15.54635,33.329839 24.566054,23.968564 35.732884,21.345685 37.254798,20.988216 39.6625,20.59351 41.083333,20.46856 l 2.583334,-0.227181 0.0588,11.462644 c 0.09569,18.655639 0.01443,17.273321 1.068821,18.180275 l 0.909558,0.782369 h 14.030923 14.030923 l -0.201075,2.75 C 72.661206,65.772086 64.278637,76.383828 52.486253,80.100388 47.871103,81.554927 43.11214,81.96207 38.5,81.296951 Z M 61.335203,49.422567 c -1.557305,-0.06536 -2.974805,-0.262169 -3.15,-0.437364 -0.202493,-0.202493 -0.07759,-0.318536 0.34285,-0.318536 0.363763,0 1.476139,-0.825 2.471947,-1.833334 C 61.995808,45.825 63.078184,45 63.40528,45 63.732376,45 64,44.841147 64,44.646994 64,44.449695 63.816214,44.40739 63.583333,44.551084 63.354167,44.692486 63.541667,44.345836 64,43.78075 c 0.458333,-0.565086 0.966238,-0.950462 1.128677,-0.856393 0.16244,0.09407 -0.06256,0.446237 -0.5,0.782594 -0.437439,0.336357 -0.606852,0.614894 -0.376473,0.61897 0.23038,0.0041 0.74493,-0.367588 1.143446,-0.825921 0.42517,-0.488988 1.082301,-0.833333 1.590293,-0.833333 1.106611,0 2.34739,0.863647 2.34739,1.633905 0,0.327857 0.284685,0.853739 0.632634,1.168629 0.347948,0.314889 0.710752,1.050637 0.80623,1.634995 0.09548,0.584359 0.223293,1.362471 0.284033,1.729137 0.104411,0.63029 -0.08054,0.667796 -3.389563,0.687365 -1.925,0.01138 -4.774159,-0.03278 -6.331464,-0.09813 z"
         id="path31" />
      <path
         style="fill:#3695ee"
         d="M 38.5,81.296951 C 26.162582,79.517768 15.73248,69.61211 13.194706,57.264053 c -0.678881,-3.30323 -0.679516,-9.219901 -0.0013,-12.528106 1.510865,-7.370203 6.163091,-14.475368 12.202932,-18.637066 3.153772,-2.173078 5.135437,-3.154369 8.532034,-4.224935 3.030648,-0.955223 8.958756,-1.794231 9.402545,-1.330746 0.152793,0.159573 0.330658,6.642603 0.395255,14.406734 l 0.117451,14.1166 0.930133,0.800066 0.930132,0.800067 h 14.030923 14.030923 l -0.201075,2.75 C 72.661206,65.772086 64.278637,76.383828 52.486253,80.100388 47.871103,81.554927 43.11214,81.96207 38.5,81.296951 Z m 24.290375,-31.937817 -2.042957,-0.192467 2.619296,-2.333334 c 1.549355,-1.380202 2.860437,-2.293722 3.209625,-2.236363 0.32468,0.05333 0.815328,0.131476 1.090328,0.17365 0.910704,0.139668 2.666666,2.121783 2.666666,3.010111 0,0.465625 0.166015,0.949194 0.368921,1.074597 1.185559,0.732715 -2.792977,0.986057 -7.911879,0.503806 z"
         id="path30" />
      <path
         style="fill:#24a0f1"
         d="M 39,81.325528 C 36.341004,80.955842 31.739324,79.548514 29.5,78.420151 21.236146,74.256111 15.032689,66.207134 13.194706,57.264053 12.515825,53.960823 12.51519,48.044152 13.19336,44.735947 15.395867,33.991818 23.360156,25.204866 33.909573,21.87987 c 2.816046,-0.887569 8.426515,-1.744717 9.278953,-1.417607 0.403724,0.154924 0.4804,2.221359 0.492658,13.277275 0.01422,12.824226 0.176418,15.584432 0.962,16.370607 0.279798,0.280008 4.400078,0.436816 14.623189,0.556522 L 73.5,50.833333 73.428055,53.5 C 73.192954,62.214158 67.779839,71.457943 59.899454,76.602313 57.106126,78.425817 53.259698,80.050784 49.882918,80.833911 47.159128,81.4656 41.761306,81.709437 39,81.325528 Z m 23.790375,-31.966394 -2.042957,-0.192467 2.619296,-2.333334 c 1.549355,-1.380202 2.860437,-2.293722 3.209625,-2.236363 0.32468,0.05333 0.815328,0.131476 1.090328,0.17365 0.910704,0.139668 2.666666,2.121783 2.666666,3.010111 0,0.465625 0.166015,0.949194 0.368921,1.074597 1.185559,0.732715 -2.792977,0.986057 -7.911879,0.503806 z"
         id="path29" />
      <path
         style="fill:#229ef1"
         d="M 39,81.325528 C 26.682552,79.613009 16.789096,70.767653 13.4641,58.494867 c -0.502103,-1.853293 -0.625898,-3.416096 -0.606898,-7.661534 0.02157,-4.820097 0.111509,-5.620445 0.93459,-8.316885 C 17.003439,31.994984 25.120564,24.116155 35.430691,21.512805 37.118811,21.086547 39.625,20.684288 41,20.618896 L 43.5,20.5 43.666667,34.666667 c 0.158166,13.444115 0.25744,14.871143 1.095061,15.74103 0.03938,0.0409 6.521605,0.1534 14.404939,0.25 L 73.5,50.833333 73.428055,53.5 C 73.192954,62.214158 67.779839,71.457943 59.899454,76.602313 57.106126,78.425817 53.259698,80.050784 49.882918,80.833911 47.159128,81.4656 41.761306,81.709437 39,81.325528 Z M 64.916667,49.394526 c -0.8983,-0.103361 -1.320265,-0.722389 -0.5,-0.733507 0.229166,-0.0031 1.143701,-0.687548 2.032298,-1.520982 l 1.615632,-1.515334 0.801035,1.085742 c 0.440569,0.597158 0.801035,1.227563 0.801035,1.400901 0,0.173337 0.2625,0.514425 0.583333,0.757972 0.531704,0.403621 0.502201,0.447439 -0.333333,0.495081 -2.053086,0.117066 -4.135381,0.129612 -5,0.03013 z"
         id="path28" />
      <path
         style="fill:#3589ec"
         d="M 39,81.325528 C 36.334089,80.954881 31.732741,79.54621 29.5,78.417169 21.786381,74.516584 16.415499,68.033131 13.770597,59.42944 12.946829,56.749776 12.870044,56.031047 12.870044,51 c 0,-5.053522 0.07438,-5.742198 0.916234,-8.483552 3.143152,-10.235108 11.105668,-18.169452 20.894229,-20.820305 2.777643,-0.752217 8.174545,-1.491737 8.666699,-1.187569 0.194527,0.120224 0.325138,5.306338 0.333978,13.261098 0.01422,12.79562 0.176642,15.554522 0.962,16.340473 0.279798,0.280008 4.400078,0.436816 14.623189,0.556522 L 73.5,50.833333 73.428055,53.5 C 73.192954,62.214158 67.779839,71.457943 59.899454,76.602313 57.106126,78.425817 53.259698,80.050784 49.882918,80.833911 47.159128,81.4656 41.761306,81.709437 39,81.325528 Z M 65,49.173441 c 0,-0.08794 0.6,-0.465989 1.333333,-0.840108 1.08722,-0.554658 1.333334,-0.58973 1.333334,-0.190004 0,0.269616 0.2625,0.643103 0.583333,0.829971 0.445728,0.259613 0.131202,0.342152 -1.333333,0.349897 C 65.8625,49.328772 65,49.261382 65,49.173441 Z"
         id="path27" />
      <path
         style="fill:#2893ee"
         d="M 39.5,81.307392 C 36.508341,80.986649 32.01053,79.686681 29.5,78.417169 21.786381,74.516584 16.415499,68.033131 13.770597,59.42944 12.946829,56.749776 12.870044,56.031047 12.870044,51 c 0,-5.053522 0.07438,-5.742198 0.916234,-8.483552 3.143152,-10.235108 11.105668,-18.169452 20.894229,-20.820305 2.777643,-0.752217 8.174545,-1.491737 8.666699,-1.187569 0.194527,0.120224 0.325138,5.306338 0.333978,13.261098 0.01422,12.79562 0.176642,15.554522 0.962,16.340473 0.279798,0.280008 4.400078,0.436816 14.623189,0.556522 L 73.5,50.833333 73.411132,53.305259 C 73.171204,59.979026 70.119705,66.835552 65.040166,72.11429 58.384716,79.030743 49.177306,82.344921 39.5,81.307392 Z M 65,49.173441 c 0,-0.08794 0.6,-0.465989 1.333333,-0.840108 1.08722,-0.554658 1.333334,-0.58973 1.333334,-0.190004 0,0.269616 0.2625,0.643103 0.583333,0.829971 0.445728,0.259613 0.131202,0.342152 -1.333333,0.349897 C 65.8625,49.328772 65,49.261382 65,49.173441 Z"
         id="path26" />
      <path
         style="fill:#18a1f0"
         d="M 39.824026,81.336247 C 27.556723,79.999926 17.492898,71.538649 13.771396,59.432195 12.946706,56.749391 12.870044,56.03221 12.870044,51 c 0,-5.053522 0.07438,-5.742198 0.916234,-8.483552 3.143152,-10.235108 11.105668,-18.169452 20.894229,-20.820305 2.777643,-0.752217 8.174545,-1.491737 8.666699,-1.187569 0.195595,0.120884 0.319461,5.675479 0.319461,14.325844 v 14.128406 l 0.805819,0.935255 0.805819,0.935254 H 59.389152 73.5 l -0.08887,2.471926 c -0.375474,10.444057 -7.406764,20.632757 -17.504294,25.364619 -4.77124,2.235879 -10.823507,3.239284 -16.082812,2.666369 z M 65,49.173441 c 0,-0.08794 0.6,-0.465989 1.333333,-0.840108 1.08722,-0.554658 1.333334,-0.58973 1.333334,-0.190004 0,0.269616 0.2625,0.643103 0.583333,0.829971 0.445728,0.259613 0.131202,0.342152 -1.333333,0.349897 C 65.8625,49.328772 65,49.261382 65,49.173441 Z"
         id="path25" />
      <path
         style="fill:#1a9ef0"
         d="M 39.824026,81.336247 C 27.554301,79.999663 17.451892,71.502806 13.781018,59.432195 c -0.788113,-2.591483 -0.892759,-3.493813 -0.900592,-7.765528 -0.0049,-2.658334 0.08917,-5.283334 0.208995,-5.833334 2.198214,-10.09019 7.846605,-17.594318 16.577246,-22.023578 1.375,-0.69757 2.65,-1.298145 2.833333,-1.334612 0.183333,-0.03647 1.233333,-0.334532 2.333333,-0.662368 1.1,-0.327836 2.225,-0.631487 2.5,-0.67478 C 39.407847,20.811408 41.659712,20.543688 42.5,20.52374 l 1,-0.02374 0.166667,14.407695 0.166666,14.407696 0.760795,0.758971 0.760795,0.758971 H 59.427462 73.5 l -0.08887,2.471926 c -0.375474,10.444057 -7.406764,20.632757 -17.504294,25.364619 -4.77124,2.235879 -10.823507,3.239284 -16.082812,2.666369 z M 65,49.173441 c 0,-0.08794 0.6,-0.465989 1.333333,-0.840108 1.08722,-0.554658 1.333334,-0.58973 1.333334,-0.190004 0,0.269616 0.2625,0.643103 0.583333,0.829971 0.445728,0.259613 0.131202,0.342152 -1.333333,0.349897 C 65.8625,49.328772 65,49.261382 65,49.173441 Z"
         id="path24" />
      <path
         style="fill:#2589ec"
         d="M 39.824026,81.336247 C 27.103868,79.950595 16.531061,70.642539 13.441452,58.109635 12.587319,54.64487 12.665975,47.675437 13.601826,43.89955 16.787289,31.047133 27.791636,21.7284 40.916667,20.768721 l 2.75,-0.201076 v 14.19759 14.197589 l 0.805819,0.935255 0.805819,0.935254 H 59.389152 73.5 l -0.08887,2.471926 c -0.375474,10.444057 -7.406764,20.632757 -17.504294,25.364619 -4.77124,2.235879 -10.823507,3.239284 -16.082812,2.666369 z"
         id="path23" />
      <path
         style="fill:#1793ee"
         d="M 37.037659,80.818452 C 25.188376,78.247786 16.296261,69.69008 13.441452,58.109635 12.587319,54.64487 12.665975,47.675437 13.601826,43.89955 16.787289,31.047133 27.791636,21.7284 40.916667,20.768721 l 2.75,-0.201076 V 34.809464 49.051282 L 44.641026,50.025641 45.615385,51 h 14.052172 14.052172 l -0.221162,2.25 c -0.774943,7.883908 -3.931623,14.543307 -9.378067,19.784168 -5.753273,5.536109 -12.80569,8.325838 -20.913242,8.272665 -2.222325,-0.01457 -4.998645,-0.234346 -6.169599,-0.488381 z"
         id="path22" />
      <path
         style="fill:#158aec"
         d="M 37.037659,80.818452 C 30.381721,79.374466 25.593002,76.669058 20.973813,71.743108 17.186375,67.704147 14.660063,62.831861 13.418686,57.172172 12.6414,53.628363 12.730596,47.506997 13.612085,43.89955 16.72659,31.153604 27.592942,21.883515 40.700536,20.790383 l 2.632797,-0.219567 6.47e-4,4.964592 c 3.56e-4,2.730526 0.100342,9.163617 0.222192,14.295759 l 0.221546,9.331166 0.918833,0.918834 L 45.615385,51 h 14.052172 14.052172 l -0.221162,2.25 c -0.774943,7.883908 -3.931623,14.543307 -9.378067,19.784168 -5.753273,5.536109 -12.80569,8.325838 -20.913242,8.272665 -2.222325,-0.01457 -4.998645,-0.234346 -6.169599,-0.488381 z"
         id="path21" />
      <path
         style="fill:#227eea"
         d="M 37.333333,80.858081 C 25.182408,78.160981 16.035163,69.101227 13.418686,57.172172 12.6414,53.628363 12.730596,47.506997 13.612085,43.89955 16.725474,31.158169 27.593467,21.883471 40.690145,20.791249 l 2.622407,-0.2187 0.09372,14.353829 L 43.5,49.280208 44.308105,50.140104 45.116209,51 h 14.30176 14.30176 l -0.221162,2.25 c -0.774943,7.883908 -3.931623,14.543307 -9.378067,19.784168 -5.760108,5.542685 -12.821578,8.333411 -20.913242,8.265008 -2.222325,-0.01879 -4.865591,-0.217279 -5.873925,-0.441095 z"
         id="path20" />
      <path
         style="fill:#0098f0"
         d="M 37.333333,80.846419 C 25.285347,78.260969 16.035876,69.104478 13.418686,57.172172 12.6414,53.628363 12.730596,47.506997 13.612085,43.89955 16.725474,31.158169 27.593467,21.883471 40.690145,20.791249 l 2.622407,-0.2187 0.09372,14.353829 0.09372,14.35383 0.804782,0.856359 0.804782,0.856359 14.17656,0.08687 14.17656,0.08687 -0.08261,2 c -0.286409,6.93414 -3.637744,14.158374 -9.046082,19.5 -3.921095,3.872727 -8.187697,6.290248 -13.87178,7.859962 -2.704426,0.746853 -10.279043,0.931354 -13.128881,0.31979 z"
         id="path19" />
      <path
         style="fill:#0099ef"
         d="M 37.333333,80.846419 C 25.284375,78.260761 15.985008,69.051176 13.428291,57.172172 12.895072,54.694731 12.700621,48.62299 13.091846,46.666667 13.220166,46.025 13.409072,45.05 13.511635,44.5 c 1.230878,-6.600603 5.699388,-13.555512 11.419329,-17.773348 3.36447,-2.480932 7.903763,-4.592718 11.235703,-5.227114 3.094215,-0.589134 4.800756,-0.829219 5.90638,-0.830941 l 1.239713,-0.0019 0.09362,14.30677 0.09362,14.306771 0.804782,0.856359 0.804782,0.856359 14.17656,0.08687 14.17656,0.08687 -0.08261,2 c -0.286409,6.93414 -3.637744,14.158374 -9.046082,19.5 -3.921095,3.872727 -8.187697,6.290248 -13.87178,7.859962 -2.704426,0.746853 -10.279043,0.931354 -13.128881,0.31979 z M 35.218358,22.44058 c -0.04905,-0.04905 -0.680743,0.07043 -1.403768,0.265494 -1.079181,0.291159 -2.828225,1.856438 -9.767162,8.740965 -7.888002,7.826152 -8.912436,9.03098 -9.539755,11.219628 -0.149512,0.52163 3.695844,-3.088559 10.280504,-9.651788 5.785647,-5.766817 10.479228,-10.525252 10.430181,-10.574299 z"
         id="path18" />
      <path
         style="fill:#0097f0"
         d="M 37.333333,80.846419 C 25.284499,78.260787 15.991233,69.0577 13.42711,57.172172 13.149597,55.885811 12.912123,53.333333 12.89939,51.5 c -0.02531,-3.644098 0.638031,-7.952556 1.173447,-7.621651 0.20634,0.127525 0.247089,-0.09441 0.107705,-0.586606 -0.131665,-0.464937 -0.107672,-0.625878 0.05813,-0.389908 0.194095,0.27624 3.618981,-2.930106 10.957744,-10.258536 5.871472,-5.863204 10.618893,-10.71688 10.549826,-10.785947 -0.193737,-0.193738 2.900382,-0.802581 5.358576,-1.05443 l 2.207746,-0.22619 0.09372,14.351738 0.09372,14.351738 0.804782,0.856359 0.804782,0.856359 14.17656,0.08687 14.17656,0.08687 -0.08261,2 c -0.286409,6.93414 -3.637744,14.158374 -9.046082,19.5 -3.921095,3.872727 -8.187697,6.290248 -13.87178,7.859962 -2.704426,0.746853 -10.279043,0.931354 -13.128881,0.31979 z"
         id="path17" />
      <path
         style="fill:#0095ee"
         d="M 37.333333,80.846419 C 25.282838,78.260431 15.913345,68.976071 13.442005,57.172172 12.90987,54.63053 12.828971,48.226826 13.305076,46.333333 c 0.161342,-0.641666 0.308704,-0.94748 0.32747,-0.679586 0.01877,0.267895 5.507409,-4.980743 12.196984,-11.663639 9.340315,-9.33099 12.02985,-12.197378 11.589689,-12.351778 -0.52347,-0.183623 3.735024,-0.971663 5.250777,-0.971663 0.623358,0 0.64559,0.431933 0.736384,14.30677 L 43.5,49.280208 l 0.804782,0.856359 0.804782,0.856359 14.17656,0.08687 14.17656,0.08687 -0.08261,2 c -0.286409,6.93414 -3.637744,14.158374 -9.046082,19.5 -3.921095,3.872727 -8.187697,6.290248 -13.87178,7.859962 -2.704426,0.746853 -10.279043,0.931354 -13.128881,0.31979 z"
         id="path16" />
      <path
         style="fill:#0091ee"
         d="M 37.333333,80.846419 C 25.224699,78.247955 15.709415,68.768854 13.472208,57.076031 c -0.514567,-2.6894 -0.634104,-6.215433 -0.20165,-5.948162 0.472671,0.292127 29.001859,-28.527016 29.247283,-29.544536 0.121604,-0.504166 0.350207,-0.916666 0.508008,-0.916666 0.157801,0 0.32904,6.438046 0.380531,14.30677 L 43.5,49.280208 l 0.804782,0.856359 0.804782,0.856359 14.17656,0.08687 14.17656,0.08687 -0.08261,2 c -0.286409,6.93414 -3.637744,14.158374 -9.046082,19.5 -3.921095,3.872727 -8.187697,6.290248 -13.87178,7.859962 -2.704426,0.746853 -10.279043,0.931354 -13.128881,0.31979 z"
         id="path15" />
      <path
         style="fill:#008eee"
         d="M 37.333333,80.846419 C 25.683956,78.346509 16.227604,69.342462 13.864376,58.5 13.74318,57.943956 13.768192,57.681032 13.920715,57.90777 14.108524,58.186965 18.623858,53.877667 28.240814,44.241104 40.346709,32.110526 42.311129,30.005535 42.464122,29 c 0.09763,-0.641667 0.295642,-2.816667 0.440027,-4.833333 0.201778,-2.818302 0.30108,-0.337179 0.429184,10.723509 L 43.5,49.280351 l 0.804782,0.856288 0.804782,0.856287 14.17656,0.08687 14.17656,0.08687 -0.08261,2 c -0.286409,6.93414 -3.637744,14.158374 -9.046082,19.5 -3.921095,3.872727 -8.187697,6.290248 -13.87178,7.859962 -2.704426,0.746853 -10.279043,0.931354 -13.128881,0.31979 z"
         id="path14" />
      <path
         style="fill:#008cee"
         d="M 37.333333,80.846419 C 27.509741,78.738315 18.65475,71.580142 15.498975,63.196021 14.560536,60.702816 14.546137,60.634761 14.981475,60.75 15.15462,60.795833 21.388391,54.758333 28.8343,47.333333 l 13.538016,-13.5 0.308418,-3.666666 C 42.850363,28.15 43.024717,25.975 43.068186,25.333333 c 0.04347,-0.641666 0.158409,4.48395 0.255424,11.390258 L 43.5,49.280515 l 0.804782,0.856206 0.804782,0.856205 14.17656,0.08687 14.17656,0.08687 -0.08261,2 c -0.286409,6.93414 -3.637744,14.158374 -9.046082,19.5 -3.921095,3.872727 -8.187697,6.290248 -13.87178,7.859962 -2.704426,0.746853 -10.279043,0.931354 -13.128881,0.31979 z"
         id="path13" />
      <path
         style="fill:#1679e9"
         d="M 37.333333,80.846419 C 28.779147,79.010725 21.346883,73.771811 17.47842,66.850928 L 16.456839,65.023268 29.39441,52.101394 C 39.596658,41.911523 42.364676,38.966736 42.486624,38.173093 c 0.08505,-0.553534 0.272858,-2.506426 0.417343,-4.33976 0.224981,-2.854725 0.28663,-1.985027 0.429366,6.057136 0.166188,9.363453 0.168982,9.392931 0.971449,10.246463 l 0.804782,0.855994 14.17656,0.08687 14.17656,0.08687 -0.08261,2 c -0.286409,6.93414 -3.637744,14.158374 -9.046082,19.5 -3.921095,3.872727 -8.187697,6.290248 -13.87178,7.859962 -2.704426,0.746853 -10.279043,0.931354 -13.128881,0.31979 z"
         id="path12" />
      <path
         style="fill:#0089ed"
         d="M 38.5,80.963618 C 29.851417,79.716403 21.557253,74.148175 17.47842,66.850928 L 16.456839,65.023268 29.39441,52.101394 C 39.596658,41.911523 42.364676,38.966736 42.486624,38.173093 c 0.08505,-0.553534 0.272858,-2.506426 0.417343,-4.33976 0.224981,-2.854725 0.28663,-1.985027 0.429366,6.057136 0.166384,9.374512 0.16804,9.391929 0.974772,10.25 L 45.116209,51 h 14.108562 14.108562 l -0.0044,1.583333 c -0.0024,0.870834 -0.283564,2.935994 -0.624789,4.589247 C 69.47783,72.804293 54.441989,83.262618 38.5,80.963618 Z"
         id="path11" />
      <path
         style="fill:#0085ec"
         d="m 38.5,80.963618 c -6.903216,-0.995515 -14.429237,-5.19352 -18.102616,-10.097615 -1.704719,-2.275863 -2.034336,-2.864567 -1.19125,-2.1276 0.634096,0.554282 0.995915,0.228647 11.851973,-10.666667 l 11.197909,-11.238403 0.371992,-3.852866 c 0.204596,-2.119076 0.400883,-4.069076 0.436195,-4.333333 0.03531,-0.264257 0.147811,2.020402 0.25,5.077019 0.177089,5.297031 0.223669,5.597753 0.993902,6.416667 L 45.116209,51 h 14.108562 14.108562 l -0.0044,1.583333 c -0.0024,0.870834 -0.283564,2.935994 -0.624789,4.589247 C 69.47783,72.804293 54.441989,83.262618 38.5,80.963618 Z"
         id="path10" />
      <path
         style="fill:#0a7bea"
         d="M 38.5,80.963618 C 32.927824,80.160052 25.81942,76.758495 23.195318,73.639926 l -0.894187,-1.06268 0.766101,-0.816243 c 0.421356,-0.448934 4.782952,-4.816314 9.692436,-9.70529 4.909484,-4.888975 9.296729,-9.366205 9.749435,-9.949398 0.762285,-0.982008 0.796315,-1.179034 0.460576,-2.666667 -0.246896,-1.093979 -0.258607,-2.1379 -0.03672,-3.272981 L 43.258772,44.5 l 0.03728,2.224425 c 0.03143,1.87545 0.172665,2.38532 0.900245,3.25 L 45.059262,51 h 14.137036 14.137035 l -0.0044,1.583333 c -0.0024,0.870834 -0.283564,2.935994 -0.624789,4.589247 C 69.47783,72.804293 54.441989,83.262618 38.5,80.963618 Z"
         id="path9" />
      <path
         style="fill:#0081ec"
         d="m 36.166667,80.350915 c -4.354035,-1.119624 -8.252414,-2.937029 -11.300291,-5.268137 -3.173664,-2.427313 -3.780872,-1.383914 7.141585,-12.27179 5.321225,-5.304377 10.046044,-10.12148 10.499598,-10.704673 0.764037,-0.982421 0.798,-1.178408 0.46212,-2.666667 -0.246896,-1.093979 -0.258607,-2.1379 -0.03672,-3.272981 L 43.258772,44.5 l 0.03728,2.099887 c 0.04303,2.423574 0.621186,3.770185 1.8613,4.335218 0.632287,0.288089 4.658854,0.398228 14.558828,0.398228 H 73.400994 L 73.161826,53.75 c -1.27818,12.915308 -10.484979,23.606927 -22.889197,26.580637 -3.690435,0.884721 -10.705069,0.894805 -14.105962,0.02028 z"
         id="path8" />
      <path
         style="fill:#007dea"
         d="m 36.166667,80.350915 c -3.884995,-0.999013 -7.417741,-2.52517 -9.169848,-3.961404 L 26.166667,75.70902 37.760743,64.087475 c 6.376742,-6.391849 11.489242,-11.726379 11.361111,-11.85451 -0.128131,-0.128131 -0.845465,-0.23828 -1.594076,-0.244777 -0.748611,-0.0065 -1.736111,-0.241857 -2.194445,-0.523023 -0.458333,-0.281166 -0.558565,-0.425851 -0.222737,-0.321522 0.335828,0.10433 6.838551,0.18969 14.450497,0.18969 H 73.400994 L 73.161826,53.75 c -1.27818,12.915308 -10.484979,23.606927 -22.889197,26.580637 -3.690435,0.884721 -10.705069,0.894805 -14.105962,0.02028 z"
         id="path7" />
      <path
         style="fill:#007aea"
         d="M 36.5,80.468665 C 35.4,80.206979 33.698734,79.671467 32.719408,79.278638 L 30.938816,78.564405 43.636075,65.863933 c 6.983492,-6.985259 12.697258,-12.880454 12.697258,-13.100431 0,-0.411354 -0.600482,-0.557932 -4.333333,-1.057764 -1.523387,-0.203984 1.331931,-0.302335 9.617164,-0.331262 L 73.400994,51.333333 73.161826,53.75 C 71.883646,66.665308 62.676847,77.356927 50.272629,80.330637 46.891096,81.141304 39.6332,81.214042 36.5,80.468665 Z"
         id="path6" />
      <path
         style="fill:#0078ea"
         d="M 36.166667,80.333333 C 34.883333,79.987804 33.753973,79.69645 33.656977,79.685882 33.559982,79.675314 39.447482,73.706691 46.740311,66.422277 54.03314,59.137862 60,52.994659 60,52.770714 c 0,-0.223944 -0.4875,-0.480615 -1.083333,-0.570378 -0.595834,-0.08976 -2.058334,-0.300678 -3.25,-0.468699 -1.641514,-0.231449 0.245119,-0.316741 7.78383,-0.351899 L 73.400994,51.333333 73.161826,53.75 c -1.27818,12.915308 -10.484979,23.606927 -22.889197,26.580637 -3.771116,0.904063 -10.753235,0.905398 -14.105962,0.0027 z"
         id="path5" />
      <path
         style="fill:#0075e9"
         d="M 38,80.666667 C 37.307122,80.444768 37.279285,80.394186 37.834839,80.36656 38.55236,80.330879 66.284875,52.840431 65.945606,52.501162 65.840127,52.395683 64.346715,52.160317 62.626913,51.978127 60.907111,51.795937 59.275,51.593726 59,51.52877 58.725,51.463814 61.852724,51.393267 65.950497,51.372 L 73.400994,51.333333 73.161826,53.75 C 71.883646,66.665308 62.676847,77.356927 50.272629,80.330637 48.183612,80.831444 46.431585,80.987713 43.166667,80.964438 40.783333,80.947448 38.458333,80.813451 38,80.666667 Z"
         id="path4" />
      <path
         style="fill:#0071e8"
         d="m 44.52185,80.777713 c 0.823643,-0.116035 3.693452,-2.818429 14.795195,-13.932092 L 73.09039,53.057488 72.879867,55.322631 C 71.672093,68.317806 59.247836,80.241332 46.333333,80.799266 44.775,80.86659 43.959833,80.856891 44.52185,80.777713 Z M 70,51.961285 C 66.201016,51.527353 66.185019,51.414232 69.91667,51.372 c 2.832,-0.03205 3.416666,0.04689 3.416666,0.461333 0,0.275 -0.1875,0.48054 -0.416666,0.456755 C 72.6875,52.266303 71.375,52.118342 70,51.961285 Z"
         id="path3" />
      <path
         style="fill:#006ee8"
         d="M 51.5,79.549504 C 52.542516,79.04546 70.98372,60.666616 71.617533,59.5 c 0.712151,-1.310807 0.364748,0.234121 -0.636434,2.830272 -2.056364,5.33233 -6.442815,10.707835 -11.303484,13.852186 -2.273106,1.470465 -6.24853,3.241217 -8.177615,3.642511 l -1,0.208023 z M 72.604167,51.438962 c 0.240625,-0.09629 0.528125,-0.08445 0.638889,0.02632 0.110763,0.110764 -0.08611,0.189547 -0.4375,0.175073 -0.388315,-0.016 -0.4673,-0.09498 -0.201389,-0.201389 z"
         id="path2" />
    </g>
  </g>
</svg>
